<?xml version="1.0" encoding="UTF-8"?>
<svg id="Camada_1" data-name="Camada 1" xmlns="http://www.w3.org/2000/svg" viewBox="0 0 800 800">
  <g id="SVGRepo_iconCarrier" data-name="SVGRepo iconCarrier">
    <path d="M571.92,355.46c-19.79-33.6-25.23-74.45-14.92-112.06l23.67-86.35,6.35,1.74c7.81,2.14,15.87-2.45,18-10.26l5.47-19.96c7.17-26.18-8.29-53.31-34.46-60.48l-94.52-25.9c-26.18-7.17-53.31,8.29-60.48,34.46l-5.47,19.96c-2.14,7.8,2.45,15.87,10.26,18l20.48,5.61,106.11,29.08-23.67,86.35c-12.39,45.2-5.85,94.29,17.94,134.68,19.79,33.6,25.23,74.45,14.92,112.06l-2.5,9.11-45.17-12.38c-7.81-2.14-15.87,2.45-18,10.26s2.45,15.87,10.26,18l45.17,12.38-79.9,291.55-278.9-76.44,79.9-291.55,186.62,51.15c7.81,2.14,15.87-2.45,18-10.26s-2.45-15.87-10.26-18l-186.62-51.15,2.5-9.11c10.31-37.61,35.81-69.98,69.97-88.8,41.05-22.62,71.71-61.51,84.1-106.72l15.3-55.81c2.14-7.8-2.45-15.87-10.26-18-7.81-2.14-15.87,2.45-18,10.26l-15.29,55.81c-10.31,37.61-35.81,69.98-69.97,88.8-41.06,22.62-71.71,61.51-84.1,106.72l-102.78,375.01c-2.14,7.8,2.45,15.87,10.26,18s15.87-2.45,18-10.26l4.88-17.82,278.9,76.44-17.83,65.04c-2.4,8.76-11.49,13.94-20.25,11.54l-247.11-67.72c-8.76-2.4-13.94-11.49-11.54-20.25l.03-.12c2.14-7.8-2.47-15.8-10.28-17.94-7.81-2.14-15.88,2.51-18.02,10.32-6.67,24.35,7.71,49.59,32.06,56.26l247.11,67.72c24.35,6.67,49.59-7.71,56.26-32.06l115.72-422.23c12.39-45.2,5.85-94.29-17.93-134.68ZM580.62,126.65l-132.94-36.43,1.6-5.83c2.9-10.59,13.88-16.85,24.47-13.94l94.52,25.9c10.59,2.9,16.85,13.88,13.94,24.47l-1.6,5.83h0Z" style="fill: #010101; stroke-width: 0px;"/>
    <path d="M405.54,504.75c-40.71-11.16-85.07,25.57-100.98,83.62-4.81,17.55-6.48,35.69-4.84,52.48.79,8.05,7.94,13.94,16.01,13.16,8.05-.79,13.95-7.95,13.16-16.01-1.3-13.26.07-27.75,3.94-41.88,11.18-40.79,40.93-69.69,64.97-63.1,24.04,6.59,34.9,46.62,23.72,87.41s-40.93,69.69-64.97,63.1c-5.49-1.5-10.4-4.82-14.61-9.85-5.19-6.21-14.43-7.04-20.64-1.85-6.21,5.19-7.04,14.43-1.85,20.64,8,9.57,18.15,16.25,29.35,19.32,40.71,11.16,85.07-25.57,100.98-83.62,15.91-58.04-3.52-112.26-44.24-123.42Z" style="fill: #010101; stroke-width: 0px;"/>
    <path d="M412.41,746.44l-17.06-4.68c-7.81-2.14-15.87,2.45-18,10.26-2.14,7.8,2.45,15.87,10.26,18l17.06,4.68c7.81,2.14,15.87-2.45,18-10.26,2.14-7.8-2.45-15.87-10.26-18Z" style="fill: #010101; stroke-width: 0px;"/>
    <path d="M357.67,731.44l-82.8-22.69c-7.81-2.14-15.87,2.45-18,10.26s2.45,15.87,10.26,18l82.8,22.69c7.81,2.14,15.87-2.45,18-10.26s-2.45-15.87-10.26-18Z" style="fill: #010101; stroke-width: 0px;"/>
  </g>
</svg>