<?xml version="1.0" encoding="UTF-8"?>
<svg id="Camada_1" data-name="Camada 1" xmlns="http://www.w3.org/2000/svg" viewBox="0 0 640 1000">
  <defs>
    <style>
      .cls-1 {
        fill: #010101;
        stroke-width: 0px;
      }
    </style>
  </defs>
  <g id="SVGRepo_iconCarrier" data-name="SVGRepo iconCarrier">
    <path class="cls-1" d="M565.57,477.81c-30.52-45.69-41.42-102.71-29.92-156.43l26.41-123.35,9.07,1.94c11.15,2.39,22.12-4.72,24.51-15.86l6.1-28.51c8-37.39-15.91-74.32-53.3-82.33l-135.01-28.9c-37.39-8-74.32,15.9-82.33,53.29l-6.1,28.51c-2.39,11.15,4.71,22.12,15.86,24.51l29.26,6.26,151.56,32.45-26.41,123.35c-13.82,64.57-.72,133.1,35.96,188.01,30.52,45.69,41.42,102.71,29.92,156.43l-2.79,13.01-64.53-13.81c-11.15-2.39-22.12,4.72-24.51,15.86-2.39,11.15,4.71,22.12,15.86,24.51l64.53,13.81-89.15,416.45-398.39-85.29,89.15-416.45,266.58,57.07c11.15,2.39,22.12-4.72,24.51-15.86,2.39-11.15-4.71-22.12-15.86-24.51l-266.58-57.07,2.79-13.01c11.5-53.73,44.79-101.28,91.34-130.47,55.94-35.08,95.96-92.24,109.78-156.81l17.07-79.72c2.39-11.15-4.71-22.12-15.86-24.51s-22.12,4.72-24.51,15.86l-17.07,79.72c-11.5,53.73-44.79,101.28-91.34,130.47-55.94,35.08-95.96,92.24-109.78,156.81L7.73,1098.91c-2.39,11.15,4.71,22.12,15.86,24.51s22.12-4.72,24.51-15.86l5.45-25.45,398.39,85.29-19.89,92.91c-2.68,12.52-15.04,20.53-27.57,17.85l-352.97-75.56c-12.52-2.68-20.53-15.05-17.85-27.57l.04-.17c2.39-11.15-4.73-22.03-15.88-24.42-11.15-2.39-22.14,4.8-24.53,15.95-7.45,34.78,14.79,69.14,49.58,76.58l352.97,75.56c34.78,7.45,69.14-14.79,76.58-49.58l129.12-603.12c13.82-64.57.72-133.1-35.96-188.01ZM559.58,155.28l-189.89-40.65,1.78-8.33c3.24-15.13,18.18-24.8,33.31-21.56l135.01,28.9c15.13,3.24,24.8,18.18,21.56,33.31l-1.78,8.33h0Z"/>
    <path class="cls-1" d="M343.44,701.05c-58.16-12.45-117.62,42.75-135.37,125.66-5.37,25.06-6.28,50.72-2.63,74.2,1.75,11.26,12.29,18.98,23.57,17.23,11.26-1.75,18.98-12.3,17.23-23.57-2.88-18.55-2.12-39.03,2.21-59.22,12.47-58.27,52.02-101.28,86.36-93.93,34.34,7.35,52.8,62.79,40.33,121.05-12.47,58.26-52.02,101.29-86.35,93.94-7.84-1.68-15.02-5.95-21.34-12.69-7.8-8.32-20.86-8.75-29.18-.95-8.32,7.8-8.75,20.86-.95,29.18,12.01,12.82,26.82,21.41,42.83,24.84,58.16,12.45,117.62-42.75,135.37-125.66,17.75-82.91-13.9-157.61-72.06-170.06Z"/>
    <path class="cls-1" d="M294.17,1023.71l-118.28-25.32c-11.15-2.39-22.12,4.72-24.51,15.86s4.71,22.12,15.86,24.51l118.28,25.32c11.15,2.39,22.12-4.72,24.51-15.86s-4.71-22.12-15.86-24.51Z"/>
  </g>
</svg>