<?xml version="1.0" encoding="UTF-8"?>
<svg id="Camada_1" data-name="Camada 1" xmlns="http://www.w3.org/2000/svg" viewBox="0 0 640 1000">
  <defs>
    <style>
      .cls-1 {
        fill: #000;
        stroke-width: 0px;
      }
    </style>
  </defs>
  <g id="SVGRepo_iconCarrier" data-name="SVGRepo iconCarrier">
    <g>
      <path class="cls-1" d="M993.03,770.33c-.41-6.36-3.91-10.67-6.1-12.58-10.09-7.01-11.07-4.53-16.33-5.97-25.33-1.62-170.75-72.69-288.8-153.23-26.2-17.69-49.52-36.07-70.22-54.69-72.44-65.16-112.79-133.64-131.03-186.04-19.53-55.41-36.25-92.04-61.18-114.91-7.65-6.9-16.19-12.31-25.45-15.87-11.76-4.06-24.55-5.53-37.53-4.86-.45-3.91-.93-8.14-1.08-12.97-6.67-53.42-30.15-143.09-30.22-143.51l.04.16v-.03c-2.41-9.59-12.13-15.41-21.72-13.01-9.59,2.4-15.41,12.12-13.01,21.71v.04s.06.15.06.15c.02.09,10.34,39.71,19.05,81.03,4.35,20.63,8.29,41.7,10.29,57.85.75,6.04,1.21,11.41,1.36,15.57-19.05,6.65-36.8,17.64-50.38,31.89-.81.9-1.62,1.83-2.39,2.76-18.27,24.22-18.11,61.55-2.74,113.41,16.13,51.73,50.82,117.51,113.49,193.46,16.44,19.92,33.89,37.94,52.01,54.25,122.57,110.17,274.97,142.19,360.26,159.47,43.2,8.68,88.09,11.15,123.16,10.9,17.55-.13,32.58-.95,43.92-2.08,5.69-.58,10.41-1.22,14.43-2.01,4.67-1.87,5.72.81,15.4-7.45,2.06-2.17,5.11-7.07,4.72-13.44ZM798.48,749.32c-84.55-16.93-229.51-48.36-343.38-150.98-16.87-15.18-33.08-31.92-48.36-50.42-60.34-73.07-92.62-135.28-106.91-181.32-15.04-45.89-8.76-76.09-3.84-79.97.44-.54.92-1.08,1.4-1.61,7.98-9.75,22.45-17.62,37.57-22.4,4.12.39,8.3-.66,11.82-3.07,13.58-2.78,26.44-2.79,34.29.91,4.91,1.9,9.54,4.72,14.38,9.06,15.93,13.91,32.77,46.23,51.32,100.08,20.43,58.57,64.1,131.72,140.9,200.87,21.94,19.74,46.57,39.14,74.12,57.75,80.21,53.61,165.68,101.89,228.07,130.97-28.64-.79-61.38-3.52-91.37-9.86Z"/>
      <path class="cls-1" d="M338.68,367.73c-6.33-19.65-11.11-39.8-14.27-60.25-.31-1.96-2.14-3.29-4.09-2.99-1.95.31-3.29,2.13-2.99,4.09,3.23,20.82,8.1,41.33,14.54,61.33.6,1.88,2.61,2.92,4.5,2.32,1.88-.61,2.92-2.63,2.31-4.51Z"/>
      <path class="cls-1" d="M488.12,571.44c-12.71-9.02-24.78-18.69-36.18-28.95-41.3-37.17-73.87-82.01-96.34-131.16-.82-1.79-2.95-2.59-4.75-1.76-1.8.81-2.59,2.94-1.77,4.74h0c22.87,50.04,56.03,95.67,98.07,133.5,11.6,10.44,23.89,20.29,36.82,29.47,1.61,1.14,3.84.77,4.99-.85,1.14-1.6.76-3.84-.85-4.99Z"/>
    </g>
  </g>
  <g id="SVGRepo_iconCarrier-2" data-name="SVGRepo iconCarrier">
    <g>
      <path class="cls-1" d="M265.92,935.74c8.25-7.48,6.05-8.68,8.19-12.53,1.14-3.4,2.22-7.42,3.36-12.3,2.25-9.71,4.64-22.67,6.71-37.88,4.13-30.41,7-69.63,4.3-108.09-5.46-75.94-16.22-211.76-98.13-330.43-12.13-17.55-25.82-34.71-41.27-51.19-58.91-62.87-112.11-100.32-155.19-120.1-43.28-19.14-75.65-23.44-98.71-10.3-.9.57-1.79,1.16-2.67,1.77-13.88,10.19-25.4,24.37-33.3,40.15-3.59-.59-8.21-1.59-13.36-2.92-13.79-3.53-31.63-9.31-49.05-15.39-34.89-12.18-68.11-25.56-68.19-25.58l-.13-.06h-.03c-8.06-3.17-17.14.8-20.29,8.85-3.16,8.05.8,17.13,8.86,20.29h.03s-.13-.04-.13-.04c.35.11,75.54,30.5,121.15,42.26,4.17.68,7.79,1.56,11.13,2.39-2.03,11.19-2.18,22.45.02,33.11,2.05,8.44,5.79,16.46,10.92,23.86,17.06,24.19,46.97,42.79,92.88,65.93,43.43,21.68,98.34,64.35,146.8,134.49,13.85,20.04,27.19,42.34,39.62,67.04,56.7,111.44,102.12,245.56,100.7,267.72.67,4.73-1.6,5.3,3.36,14.84,1.41,2.11,4.76,5.63,10.23,6.7,5.48,1.06,10.08-1.05,12.19-2.59ZM255.57,847.55c-18.26-57.39-50.61-136.96-88.17-212.54-13.07-25.99-27.15-49.53-41.83-70.77-51.42-74.36-110.02-120.43-158.56-144.71-44.66-22.11-70.83-40.33-81.11-55.71-3.22-4.68-5.15-9.01-6.25-13.49-2.33-7.22-.88-18.39,3.04-29.86,2.49-2.78,3.87-6.29,3.99-9.91,5.83-12.58,14.28-24.26,23.63-30.09.52-.36,1.04-.71,1.56-1.03,3.92-3.84,30.82-5.91,68.97,12.27,38.35,17.55,88.73,52.51,145.39,113.03,14.35,15.32,27.06,31.26,38.35,47.59,76.33,110.28,87.4,239.58,92.65,314.84,2.15,26.74.86,55.45-1.66,80.39Z"/>
      <path class="cls-1" d="M141.78,479.27c1.53-.82,2.1-2.71,1.29-4.24-6.52-12.25-13.7-24.01-21.46-35.24-28.13-40.7-64.03-74.58-104.9-100.02h0c-1.47-.92-3.4-.47-4.31,1-.92,1.46-.47,3.4,1,4.32,40.15,25,75.42,58.27,103.05,98.26,7.63,11.04,14.67,22.6,21.08,34.63.81,1.52,2.71,2.1,4.23,1.29Z"/>
    </g>
  </g>
</svg>