<?xml version="1.0" encoding="UTF-8"?>
<svg id="Camada_1" data-name="Camada 1" xmlns="http://www.w3.org/2000/svg" viewBox="0 0 800 800">
  <g id="SVGRepo_iconCarrier" data-name="SVGRepo iconCarrier">
    <g>
      <path d="M1030.02,737.57c-.33-5.87-3.53-9.88-5.53-11.65-9.26-6.54-10.18-4.26-15.03-5.63-23.35-1.68-156.99-68.32-265.3-143.5-24.04-16.52-45.42-33.64-64.38-50.98-66.35-60.66-103.07-124.12-119.51-172.6-17.61-51.27-32.76-85.18-55.59-106.46-7-6.42-14.84-11.48-23.37-14.83-10.82-3.83-22.61-5.28-34.58-4.76-.38-3.61-.79-7.52-.9-11.97-5.76-49.33-26.76-132.24-26.82-132.62l.03.14v-.03c-2.15-8.87-11.08-14.31-19.94-12.16-8.87,2.15-14.31,11.07-12.17,19.93v.03s.05.14.05.14c.02.08,9.24,36.71,16.98,74.9,3.86,19.07,7.34,38.54,9.06,53.45.65,5.57,1.03,10.54,1.14,14.38-17.63,5.99-34.09,16-46.72,29.05-.76.83-1.51,1.68-2.23,2.53-17.03,22.21-17.17,56.65-3.36,104.61,14.5,47.84,46.01,108.78,103.27,179.32,15.02,18.5,30.98,35.25,47.58,50.44,112.26,102.55,252.63,133.22,331.18,149.79,39.79,8.32,81.18,10.93,113.54,10.97,16.19,0,30.07-.63,40.54-1.6,5.26-.49,9.62-1.05,13.33-1.75,4.33-1.69,5.27.79,14.26-6.76,1.91-1.98,4.77-6.49,4.45-12.37ZM850.68,716.74c-77.87-16.25-211.38-46.31-315.68-141.83-15.45-14.13-30.28-29.69-44.24-46.88-55.13-67.86-84.45-125.5-97.29-168.07-13.54-42.45-7.52-70.27-2.95-73.81.41-.5.85-.99,1.3-1.48,7.44-8.93,20.85-16.09,34.82-20.38,3.8.39,7.67-.54,10.93-2.75,12.55-2.46,24.42-2.38,31.63,1.09,4.52,1.79,8.77,4.43,13.2,8.46,14.6,12.95,29.89,42.89,46.6,92.71,18.41,54.18,58.16,122,128.5,186.36,20.09,18.38,42.68,36.45,67.96,53.83,73.6,50.05,152.1,95.22,209.45,122.51-26.42-.94-56.6-3.7-84.23-9.77Z" style="fill: #010101; stroke-width: 0px;"/>
      <path d="M429.31,361.3c-5.69-18.18-9.96-36.8-12.72-55.69-.27-1.81-1.95-3.06-3.75-2.79-1.8.27-3.05,1.94-2.79,3.75,2.82,19.23,7.17,38.19,12.96,56.69.54,1.74,2.39,2.71,4.13,2.17,1.74-.55,2.71-2.41,2.16-4.14Z" style="fill: #010101; stroke-width: 0px;"/>
      <path d="M565.67,550.34c-11.65-8.42-22.72-17.43-33.16-26.98-37.82-34.59-67.54-76.2-87.91-121.72-.75-1.66-2.71-2.41-4.37-1.66-1.67.74-2.41,2.69-1.67,4.36h0c20.73,46.33,50.99,88.68,89.49,123.89,10.63,9.72,21.89,18.9,33.75,27.46,1.47,1.07,3.54.74,4.61-.74,1.06-1.47.73-3.54-.75-4.61Z" style="fill: #010101; stroke-width: 0px;"/>
    </g>
  </g>
  <g id="SVGRepo_iconCarrier-2" data-name="SVGRepo iconCarrier">
    <g>
      <path d="M339.64,743.8c7.79-7.19,5.67-8.32,7.68-12,1.05-3.24,2.05-7.08,3.09-11.73,2.06-9.26,4.21-21.62,6.05-36.11,3.65-28.97,6.03-66.33,3.11-102.9-5.89-72.22-17.36-201.38-96.38-313.56-11.7-16.59-24.88-32.79-39.74-48.35-56.63-59.3-107.6-94.46-148.78-112.88-41.36-17.82-72.21-21.62-94.03-8.9-.85.55-1.69,1.12-2.52,1.71-13.12,9.82-23.95,23.42-31.33,38.52-3.42-.53-7.82-1.44-12.74-2.66-13.15-3.24-30.19-8.57-46.82-14.2-33.31-11.27-65.05-23.71-65.12-23.73l-.12-.05h-.03c-7.69-2.94-16.3.91-19.23,8.61-2.93,7.69.92,16.3,8.62,19.23h.03s-.12-.03-.12-.03c.33.1,72.16,28.34,115.68,39.12,3.98.61,7.42,1.42,10.61,2.17-1.83,10.66-1.88,21.38.32,31.5,2.03,8.01,5.66,15.61,10.61,22.61,16.45,22.87,45.09,40.29,88.98,61.9,41.53,20.24,94.17,60.34,140.92,126.65,13.36,18.95,26.26,40.04,38.31,63.44,54.97,105.53,99.41,232.76,98.26,253.86.68,4.49-1.47,5.06,3.33,14.09,1.36,1.99,4.58,5.31,9.8,6.28,5.23.95,9.59-1.09,11.58-2.58ZM328.99,659.97c-17.9-54.45-49.41-129.88-85.83-201.47-12.67-24.61-26.29-46.89-40.45-66.97-49.61-70.3-105.79-113.61-152.21-136.27-42.7-20.64-67.77-37.74-77.7-52.28-3.11-4.42-4.98-8.53-6.07-12.78-2.28-6.85-1.01-17.49,2.63-28.44,2.35-2.67,3.63-6.03,3.7-9.47,5.44-12.02,13.37-23.21,22.22-28.85.49-.35.98-.68,1.47-1,3.69-3.69,29.28-5.91,65.74,11.05,36.65,16.35,84.91,49.17,139.39,106.25,13.8,14.45,26.04,29.5,36.93,44.94,73.64,104.26,85.35,227.21,91.03,298.78,2.29,25.43,1.32,52.76-.85,76.52Z" style="fill: #010101; stroke-width: 0px;"/>
      <path d="M63.56,164.26c.68-1.5.02-3.27-1.48-3.95-15.91-7.29-32.39-13.34-49.28-18.06-1.59-.44-3.23.48-3.68,2.07-.45,1.59.48,3.23,2.07,3.68,16.59,4.63,32.78,10.57,48.41,17.73,1.49.69,3.27.03,3.96-1.47Z" style="fill: #010101; stroke-width: 0px;"/>
      <path d="M217.36,310.52c1.45-.79,1.98-2.6,1.19-4.04-6.32-11.6-13.25-22.72-20.74-33.35-27.14-38.48-61.61-70.39-100.73-94.23h0c-1.41-.86-3.24-.42-4.09.99-.86,1.4-.41,3.24.99,4.1,38.43,23.42,72.3,54.77,98.96,92.57,7.36,10.44,14.17,21.37,20.38,32.76.79,1.44,2.6,1.98,4.04,1.19Z" style="fill: #010101; stroke-width: 0px;"/>
    </g>
  </g>
</svg>