<?xml version="1.0" encoding="UTF-8"?>
<svg id="Camada_1" data-name="Camada 1" xmlns="http://www.w3.org/2000/svg" viewBox="0 0 876 1184">
  <path d="M310.61,2.48c.01-.49.02-.99.03-1.48,85.57,0,171.14,0,256.71,0,.01.49.03.99.04,1.48-85.59,0-171.19,0-256.78,0Z" style="fill: #ede0df; stroke-width: 0px;"/>
  <path d="M310.61,2.48c85.59,0,171.19,0,256.78,0,1.99.16,3.97.33,5.96.49,1.02.18,2.03.35,3.05.53.98.16,1.96.32,2.94.49.69.12,1.38.24,2.07.36,9.65,4.31,20,7.51,28.83,13.12,26,16.54,38.51,40.89,38.45,71.72-.04,22.48.03,44.96-.02,67.44-.04,15.98-.14,31.97-.4,47.95-.05,2.9,1.29,3.54,3.68,4.2,27.32,7.49,53.6,17.59,78.35,31.47,48.88,27.4,89.6,63.23,115.42,113.88,11.73,23.02,18.56,47.62,19.3,73.68,1.28,44.93,2.38,89.86,3.96,134.78,1.48,42.09,3.88,84.15,5.13,126.24.87,29.44,1.1,58.93.44,88.37-.5,22.26-2.01,44.59-4.57,66.71-5.78,49.94-16.95,98.58-39.71,143.86-22.25,44.25-53.64,80.67-94.63,108.63-3.1,2.11-4.07,4.4-4.36,8.1-2.52,32.34-18.87,55.33-47.87,69.46-11.71,5.71-24.17,8.18-37.15,8.18-138.01,0-276.01.22-414.02-.15-35.46-.1-62.31-16.4-77.84-48.65-4.35-9.03-5.42-19.76-7.27-29.84-.62-3.4-1.45-5.59-4.35-7.57-31.03-21.14-57-47.37-77.52-78.8-15.79-24.18-27.72-50.25-36.65-77.76-9.12-28.09-14.99-56.83-18.85-86.05-8.2-62.15-7.05-124.56-4.86-186.96,1.51-42.91,4.11-85.79,5.73-128.7,1.19-31.61,1.38-63.25,2.4-94.86.45-13.78.85-27.7,3.1-41.26,3.16-19.05,9.49-37.32,18.47-54.54,27.37-52.5,69.43-89.65,121.6-116.19,22.15-11.27,45.31-19.76,69.68-24.79,2.98-.62,4.04-1.78,4.03-4.97-.14-36.97.08-73.94-.19-110.9-.2-26.36,8.96-48.41,28.8-65.82,10.14-8.9,21.94-14.84,34.82-18.73,1.1-.33,2.18-.75,3.27-1.12.69-.14,1.38-.29,2.08-.43,1.3-.23,2.61-.45,3.91-.68,1.01-.15,2.03-.31,3.04-.46,1.66-.14,3.32-.29,4.98-.43ZM561.41,232.84c1.59-.14,2.89-.23,4.19-.39,18.22-2.2,32.58-16.26,32.67-32.75.2-37.96.27-75.93-.17-113.89-.06-5.48-2.21-11.58-5.2-16.24-7.79-12.17-19.87-17.16-34.08-17.17-79.74-.03-159.47-.01-239.21,0-1.99,0-4,.06-5.98.3-16.56,1.98-34.29,14.89-33.82,37.1.76,35.95.28,71.93.17,107.9-.04,11.43,4.47,20.63,13.75,26.79,6.08,4.04,13.25,6.44,20.71,9.94,2.8,14.42,1.85,15.64-13.47,15.64-5.33,0-10.65.01-15.98,0-22.78-.06-45.09,2.97-66.87,9.85-48.74,15.41-90,41.9-121.41,82.61-21,27.22-32.5,57.97-33.55,92.71-2.18,71.55-4.86,143.09-7.44,214.63-2.2,61.08-4.37,122.13,2.27,183.12,3.02,27.69,7.57,55.04,15.45,81.78,7.51,25.5,17.81,49.77,32.15,72.23,22.36,35.01,52.29,61.77,88.63,81.62,1.59.87,3.04,3.51,3.11,5.38.33,8.65.19,17.31.14,25.97-.07,11.97,5.55,20.56,15.54,26.66,6.92,4.23,14.46,5.43,22.46,5.43,135.83-.06,271.67-.04,407.5-.05,2.49,0,5.01.02,7.48-.25,14.28-1.57,31.52-12.76,30.6-33.27-.35-7.81.04-15.65-.11-23.47-.06-2.97.71-4.76,3.56-6.29,55.72-30.05,93.11-75.73,114.41-134.97,15.18-42.21,21.36-86.15,24.17-130.62,3.81-60.26.85-120.49-1.53-180.73-2.45-62.22-4.32-124.45-6.52-186.68-.22-6.31-.46-12.68-1.47-18.9-5.79-35.62-24.21-64.34-49.32-89.33-23.17-23.05-50.13-40.57-79.79-53.94-29.68-13.38-60.65-21.97-93.37-23.15-9.77-.35-19.55-.05-29.67-.05v-17.48Z" style="fill: #6c0404; stroke-width: 0px;"/>
  <path d="M305.63,2.91c-1.01.15-2.03.31-3.04.46,1.01-.15,2.03-.31,3.04-.46Z" style="fill: #ede0df; stroke-width: 0px;"/>
  <path d="M576.4,3.5c-1.02-.18-2.03-.35-3.05-.53,1.02.18,2.03.35,3.05.53Z" style="fill: #ede0df; stroke-width: 0px;"/>
  <path d="M581.41,4.35c-.69-.12-1.38-.24-2.07-.36.69.12,1.38.24,2.07.36Z" style="fill: #ede0df; stroke-width: 0px;"/>
  <path d="M298.67,4.05c-.69.14-1.38.29-2.08.43.69-.14,1.38-.29,2.08-.43Z" style="fill: #ede0df; stroke-width: 0px;"/>
  <path d="M561.41,232.84v17.48c10.11,0,19.9-.3,29.67.05,32.72,1.19,63.69,9.78,93.37,23.15,29.66,13.37,56.62,30.89,79.79,53.94,25.11,24.99,43.52,53.71,49.32,89.33,1.01,6.22,1.25,12.59,1.47,18.9,2.19,62.23,4.06,124.46,6.52,186.68,2.38,60.24,5.34,120.47,1.53,180.73-2.81,44.48-9,88.42-24.17,130.62-21.3,59.24-58.69,104.92-114.41,134.97-2.85,1.54-3.61,3.33-3.56,6.29.15,7.82-.24,15.66.11,23.47.93,20.52-16.31,31.71-30.6,33.27-2.47.27-4.99.25-7.48.25-135.83.01-271.67,0-407.5.05-8,0-15.54-1.2-22.46-5.43-9.99-6.1-15.61-14.7-15.54-26.66.05-8.66.19-17.32-.14-25.97-.07-1.87-1.52-4.51-3.11-5.38-36.34-19.85-66.27-46.6-88.63-81.62-14.34-22.46-24.65-46.73-32.15-72.23-7.87-26.74-12.43-54.09-15.45-81.78-6.64-60.98-4.48-122.04-2.27-183.12,2.58-71.54,5.26-143.08,7.44-214.63,1.06-34.74,12.56-65.49,33.55-92.71,31.41-40.71,72.67-67.2,121.41-82.61,21.78-6.88,44.09-9.91,66.87-9.85,5.33.01,10.65,0,15.98,0,15.32,0,16.27-1.22,13.47-15.64-7.45-3.5-14.62-5.9-20.71-9.94-9.27-6.16-13.78-15.36-13.75-26.79.11-35.97.6-71.95-.17-107.9-.47-22.2,17.26-35.11,33.82-37.1,1.98-.24,3.99-.3,5.98-.3,79.74-.01,159.47-.03,239.21,0,14.2,0,26.28,5,34.08,17.17,2.98,4.66,5.13,10.77,5.2,16.24.44,37.96.36,75.93.17,113.89-.09,16.49-14.44,30.55-32.67,32.75-1.3.16-2.6.24-4.19.39ZM471.35,66.66c-1.91,0-3.82,0-5.73,0-2.05,0-4.1,0-6.15-.01-1.97,0-3.95,0-5.92,0-4.01,0-8.01,0-12.02-.01-1.97,0-3.95.01-5.92.02l-8.85-.04c-1.78,0-3.56,0-5.34,0-2.97,0-5.94.01-8.91.02-1.73,0-3.46,0-5.19-.01-14.62,0-29.24.01-43.85.02-1.88,0-3.76.02-5.64.02-2.07-.01-4.14-.03-6.2-.04-1.97,0-3.94.02-5.91.03-4.02,0-8.04-.02-12.07-.03-1.96.01-3.91.02-5.87.03-2.77,0-5.53,0-8.3,0-1.94.14-3.89.28-5.83.43-3.04,1.04-6.08,2.09-9.12,3.13-1.98,1.68-3.97,3.36-5.95,5.05-4.47,3.93-4.73,9.26-4.73,14.62-.02,34.77-.01,69.54,0,104.31,0,15.6,8.46,24.3,24.16,24.87q10.19.37,10.8,10.75c.02.32.2.63.31.94-.12,9.14-.47,18.29-.26,27.43.1,4.3-.98,5.82-5.52,5.7-11.98-.31-23.99-.57-35.95.01-14.08.68-28.38.97-42.14,3.69-57.03,11.25-104.24,39.25-139.5,85.89-17.43,23.06-27.51,49.13-28.49,78.49-2.56,76.71-5.42,153.41-8.12,230.12-2.17,61.76-3.73,123.53,4.47,185.03,3.41,25.6,8.72,50.79,16.97,75.34,20.67,61.54,58.78,108.18,117.14,137.54,2.75,1.38,3.35,3.14,3.33,5.9-.1,11.16-.1,22.31-.02,33.47.06,8.08,4.51,14.62,12.26,16.94,4.22,1.26,8.82,1.74,13.24,1.74,135.18.09,270.35.07,405.53.07,2.16,0,4.34.06,6.49-.14,12.18-1.17,18.89-8.55,18.9-20.71,0-9.99.21-19.99-.1-29.97-.12-3.96,1.3-5.78,4.75-7.54,54.27-27.65,91.15-70.67,112.37-127.52,13.2-35.36,19.82-72.14,23.21-109.53,5.22-57.52,3.37-115.12,1.23-172.72-2.7-72.87-5.2-145.75-7.87-218.63-.19-5.31-.67-10.66-1.64-15.88-4.53-24.35-16.07-45.31-31.77-64.13-22.34-26.79-50.09-46.63-81.23-61.79-29.27-14.25-60.02-23.72-92.74-25.37-13.45-.67-26.96-.54-40.44-.28-4.98.1-6.11-1.57-5.98-6.22.26-8.97-.1-17.96-.21-26.94.1-2.3.44-4.62.23-6.89-.33-3.64.91-5.08,4.71-4.84,3.94.25,7.94.13,11.87-.24,9.98-.95,17.76-7.29,19.86-15.88.27-2.12.78-4.24.78-6.37.05-35.95.05-71.9,0-107.84,0-2.29-.59-4.57-.9-6.85-1.42-2.42-2.84-4.85-4.27-7.27-2.22-1.65-4.44-3.29-6.66-4.94-2.07-.72-4.15-1.44-6.22-2.16-1.91-.25-3.81-.51-5.72-.76-4.08-.03-8.16-.05-12.24-.08-1.96,0-3.91.02-5.87.03-2.8,0-5.61,0-8.41,0-1.9,0-3.8-.02-5.7-.03h-8.94c-1.75-.01-3.5-.01-5.24-.01-14.31,0-28.62.02-42.93.03Z" style="fill: #f8f2f2; stroke-width: 0px;"/>
  <path d="M547.01,230.77c.1,8.98.47,17.97.21,26.94-.14,4.65.99,6.32,5.98,6.22,13.48-.26,26.99-.39,40.44.28,32.72,1.64,63.47,11.11,92.74,25.37,31.13,15.16,58.88,34.99,81.23,61.79,15.7,18.82,27.24,39.78,31.77,64.13.97,5.21,1.44,10.57,1.64,15.88,2.67,72.87,5.18,145.76,7.87,218.63,2.13,57.6,3.98,115.2-1.23,172.72-3.39,37.4-10.01,74.17-23.21,109.53-21.21,56.85-58.1,99.88-112.37,127.52-3.45,1.76-4.87,3.58-4.75,7.54.31,9.98.11,19.98.1,29.97-.01,12.16-6.72,19.54-18.9,20.71-2.15.21-4.32.14-6.49.14-135.18,0-270.35.02-405.53-.07-4.43,0-9.03-.48-13.24-1.74-7.75-2.32-12.2-8.86-12.26-16.94-.08-11.16-.08-22.31.02-33.47.03-2.76-.58-4.52-3.33-5.9-58.37-29.36-96.47-75.99-117.14-137.54-8.25-24.55-13.56-49.74-16.97-75.34-8.19-61.51-6.64-123.27-4.47-185.03,2.7-76.71,5.56-153.41,8.12-230.12.98-29.36,11.06-55.43,28.49-78.49,35.26-46.64,82.46-74.64,139.5-85.89,13.76-2.71,28.06-3,42.14-3.69,11.96-.58,23.97-.33,35.95-.01,4.54.12,5.62-1.4,5.52-5.7-.21-9.14.14-18.29.26-27.43,2.96-.03,5.92-.1,8.87-.1,69.68.02,139.36.05,209.04.08ZM758.64,445.5c-.14-5.63-.29-11.25-.43-16.88l-.18-2c-.24-2-.48-4.01-.71-6.01-.18-.7-.36-1.4-.55-2.1-4.16-19.94-13.12-37.52-25.82-53.35-16.71-20.83-37.3-36.96-60.45-49.85-28.77-16.01-59.27-27.43-92.36-29.56-22.55-1.45-45.23-1.35-67.84-1.37-68.06-.07-136.13.1-204.19.25-17.55.04-34.8,2.31-51.71,7.23-38.55,11.22-72.15,30.57-99.19,60.51-19.7,21.81-32.47,46.93-34.88,76.69-.13,1.66-.21,3.32-.25,4.99-.77,30.78-1.46,61.57-2.39,92.35-.12,3.81,1.01,5.37,4.65,6.02,3.87.69,7.6,2.1,11.45,2.94,8.99,1.95,18.01,3.73,27.02,5.59.04,2.82-1.61,2.88-3.66,2.24-2.78-.86-5.52-1.91-8.35-2.59-11.1-2.65-22.37-1.04-33.55-.95-11.3.09-18.21,6.67-19.31,17.95-1.17,12.01-2.34,24.03-2.95,36.07-.69,13.76-.82,27.55-1.07,41.33-.4,22.27-.68,44.53-1.02,66.8,0,.5.02,1-.04,1.5-1.95,15.58-1.66,31.15,1.23,46.54,1.7,9.08,6.22,16.49,16.19,18.77,10.14,2.32,20.25,4.83,30.46,6.85,24.3,4.81,48.55,9.96,72.99,13.9,30.3,4.88,60.72,9.05,91.18,12.81,19.34,2.39,38.82,3.75,58.27,5.07,19.82,1.35,39.68,2.74,59.53,2.93,28.75.28,57.5-.47,86.25-.88,5.79-.08,11.57-.57,17.35-1.01,16.48-1.27,32.95-2.6,49.42-3.95,12.02-.99,24.08-1.75,36.05-3.17,13.76-1.63,27.48-3.7,41.17-5.89,15.65-2.5,31.3-5.04,46.84-8.1,14.59-2.87,29.07-6.3,43.54-9.73,10.44-2.48,20.88-5.07,31.15-8.17,5.48-1.66,10.52-4.87,11.74-11.11,1.89-9.68,4.28-19.42,4.62-29.21.42-11.86-1.3-23.79-1.69-35.7-.55-17.1-.72-34.21-1.05-51.32-.34-17.94-.5-35.88-1.07-53.81-.31-9.91-.94-19.85-2.06-29.7-1.39-12.2-4.64-16.63-14.88-18.14-8.73-1.28-17.74-.64-26.61-1.03-1.46-.07-2.88-1.11-4.32-1.7,4.68-1.24,9.35-2.49,14.03-3.73.7-.18,1.4-.37,2.1-.55.96-.2,1.91-.4,2.87-.6,1.82-.51,5.12-.83,5.21-1.55.35-2.83-.31-5.78-.6-8.68-.16-3.96-.32-7.92-.48-11.88-.19-5.03-.38-10.06-.57-15.09-.19-6.62-.37-13.23-.56-19.85.26-.41.75-.82.75-1.24.05-8.99.08-17.97.01-26.96,0-.64-.83-1.27-1.27-1.9ZM766.28,777.53c-8.28,2.18-15.73,4.42-23.32,6.08-33.28,7.31-66.44,15.31-99.95,21.37-25.28,4.57-50.98,7.02-76.57,9.61-21.5,2.18-43.1,4.27-64.68,4.5-38.57.41-77.2.28-115.74-1.3-31.5-1.29-63.02-4.11-94.33-7.94-31.79-3.89-63.44-9.27-94.95-15.1-24.83-4.59-49.35-10.85-74.01-16.37-3.31-.74-6.62-1.44-10.33-2.24,0,2.6-.11,4.4.02,6.19,1.14,15.6,2.11,31.21,3.52,46.79,3.31,36.48,10.65,72.05,24.85,105.98,14.35,34.27,35.49,63.41,64.86,86.45,26.33,20.65,56.18,34.06,88.03,43.37,34.52,10.08,69.99,14.42,105.76,16.64,39.3,2.44,78.5,1.37,117.62-3.16,41.75-4.83,82.21-14.24,119.9-33.54,29.97-15.34,55.24-36.23,75.1-63.55,25.24-34.72,38.4-74.28,45.54-116,3.45-20.14,5.16-40.59,7.3-60.94.92-8.7.92-17.5,1.36-26.85Z" style="fill: #6d0505; stroke-width: 0px;"/>
  <path d="M547.01,230.77c-69.68-.03-139.36-.06-209.04-.08-2.96,0-5.92.06-8.87.1-.11-.32-.29-.62-.31-.94q-.61-10.38-10.8-10.75c-15.7-.57-24.16-9.27-24.16-24.87,0-34.77-.01-69.54,0-104.31,0-5.36.26-10.69,4.73-14.62.07,30.92.15,61.83.23,92.75,0,1.5-.42,3.18.13,4.44.59,1.33,2.11,2.25,3.22,3.35.86-1.12,2.46-2.24,2.46-3.36.07-34.07-.02-68.15-.09-102.22,3.04-1.04,6.08-2.09,9.12-3.13-.02,40.26-.03,80.51-.05,120.77,0,.83-.27,1.84.1,2.45.58.95,1.58,2.21,2.46,2.26,1.02.05,2.46-.83,3.07-1.73.56-.83.31-2.25.31-3.4,0-40.26-.03-80.51-.05-120.77,2.77,0,5.53,0,8.3,0-.02,34.77-.05,69.54-.06,104.32,0,.99-.22,2.27.29,2.9.71.89,2.04,1.81,3.06,1.76.88-.04,2.08-1.28,2.43-2.25.43-1.18.14-2.62.14-3.96,0-34.27,0-68.55,0-102.82,4.02,0,8.04.02,12.06.03-.01,39.59-.03,79.17-.04,118.76,0,1-.27,2.21.19,2.93.61.95,1.83,2.09,2.78,2.09.96,0,2.38-1.14,2.75-2.1.5-1.32.22-2.95.22-4.44,0-39.09,0-78.18,0-117.26,2.07.01,4.14.03,6.2.04-.03,34.77-.06,69.53-.08,104.3,0,2.34-.23,5.32,3.24,4.68,1.1-.2,2.42-3.05,2.43-4.7.12-34.77.07-69.53.06-104.3,14.62,0,29.24-.01,43.85-.02.02,34.3.04,68.6.06,102.9,0,1.33-.23,2.74.13,3.97.25.87,1.31,2.04,2.05,2.08.88.04,2.26-.8,2.62-1.61.5-1.14.34-2.6.34-3.92,0-34.47,0-68.94,0-103.4,2.97,0,5.94-.01,8.91-.02.01,39.58.02,79.16.03,118.74,0,1.33-.3,2.76.1,3.96.39,1.2,1.48,2.18,2.26,3.25.95-1.08,2.24-2.02,2.76-3.28.47-1.14.11-2.62.11-3.95.03-39.58.06-79.16.08-118.74,2.95.01,5.9.03,8.85.04-.01,18.64-.03,37.27-.04,55.91,0,15.97-.08,31.95.1,47.92.02,1.76,1.13,4.68,2.35,5.04,3.98,1.2,3.51-2.11,3.51-4.56,0-34.77,0-69.55,0-104.32,4.01,0,8.01,0,12.02.01,0,39.42-.02,78.84-.02,118.26,0,1.16-.29,2.52.21,3.43.52.97,1.82,2.1,2.77,2.09.96,0,2.32-1.13,2.76-2.1.5-1.12.22-2.61.22-3.94,0-39.25,0-78.51,0-117.76,2.05,0,4.1,0,6.15.02-.02,34.9-.04,69.81-.05,104.71,0,2.11-.49,4.53,2.94,4.55,3.53.02,2.87-2.51,2.88-4.55,0-34.9-.01-69.81-.03-104.71,14.31,0,28.62-.02,42.93-.03.01,34.27.02,68.54.04,102.81,0,1.5-.23,3.08.19,4.46.24.8,1.56,1.74,2.4,1.74.83,0,2.15-.95,2.39-1.75.42-1.38.18-2.96.18-4.46.02-34.27.03-68.54.04-102.81,2.98,0,5.96,0,8.94.01-.01,40.26-.03,80.53,0,120.79,0,2.18-.74,5.37,2.86,5,1.12-.11,2.81-2.91,2.82-4.48.13-40.43.06-80.86.03-121.29,2.8,0,5.61,0,8.41,0-.03,34.77-.05,69.55-.07,104.32,0,.99-.22,2.26.29,2.91.7.89,2.03,1.81,3.05,1.76.88-.04,2.09-1.27,2.45-2.24.43-1.18.14-2.62.14-3.96,0-34.27.02-68.55.02-102.82,4.08.03,8.16.05,12.24.08-.04,39.62-.08,79.25-.12,118.87,0,.66-.2,1.6.15,1.94.94.92,2.06,2.02,3.24,2.19.65.1,1.91-1.4,2.24-2.4.4-1.2.12-2.63.12-3.96.03-38.62.07-77.25.1-115.87,2.07.72,4.15,1.44,6.22,2.16-.07,34.27-.13,68.55-.2,102.82,0,.17-.07.4.02.49.98,1,1.98,2.76,2.99,2.77,1.21,0,2.91-1.22,3.53-2.38.63-1.18.23-2.92.23-4.42.04-31.45.07-62.89.1-94.34,1.42,2.42,2.84,4.85,4.27,7.27-.41,1.68-1.17,3.36-1.18,5.04-.07,37.02-.07,74.04,0,111.05,0,1.66.84,3.31,1.29,4.97-2.09,8.59-9.88,14.93-19.86,15.88-3.93.37-7.93.49-11.87.24-3.8-.24-5.04,1.2-4.71,4.84.2,2.27-.14,4.59-.23,6.89Z" style="fill: #de1b1b; stroke-width: 0px;"/>
  <path d="M319.48,66.67c.02,40.26.04,80.51.05,120.77,0,1.16.25,2.57-.31,3.4-.61.91-2.04,1.79-3.07,1.73-.88-.05-1.87-1.31-2.46-2.26-.37-.61-.1-1.62-.1-2.45.02-40.26.03-80.51.05-120.77,1.94-.14,3.89-.28,5.83-.43Z" style="fill: #6d0303; stroke-width: 0px;"/>
  <path d="M534.16,66.67c.03,40.43.09,80.86-.03,121.29,0,1.57-1.7,4.37-2.82,4.48-3.6.36-2.86-2.83-2.86-5-.02-40.26,0-80.53,0-120.79,1.9,0,3.8.02,5.7.03Z" style="fill: #640202; stroke-width: 0px;"/>
  <path d="M351.63,66.64c0,39.09,0,78.18,0,117.26,0,1.49.28,3.12-.22,4.44-.36.96-1.79,2.1-2.75,2.1-.95,0-2.17-1.13-2.78-2.09-.46-.72-.19-1.94-.19-2.93,0-39.59.02-79.17.04-118.76,1.97,0,3.94-.02,5.91-.03Z" style="fill: #6d0303; stroke-width: 0px;"/>
  <path d="M459.47,66.65c0,39.25,0,78.51,0,117.76,0,1.33.29,2.82-.22,3.94-.44.97-1.8,2.1-2.76,2.1-.95,0-2.25-1.12-2.77-2.09-.49-.92-.21-2.27-.21-3.43,0-39.42.01-78.84.02-118.26,1.98,0,3.95,0,5.92,0Z" style="fill: #6d0303; stroke-width: 0px;"/>
  <path d="M566.41,67.48c-.03,38.62-.06,77.25-.1,115.87,0,1.33.28,2.76-.12,3.96-.33,1-1.59,2.5-2.24,2.4-1.17-.17-2.3-1.27-3.24-2.19-.35-.34-.15-1.28-.15-1.94.03-39.62.07-79.25.12-118.87,1.91.25,3.82.51,5.72.76Z" style="fill: #610202; stroke-width: 0px;"/>
  <path d="M579.29,74.59c-.03,31.45-.06,62.89-.1,94.34,0,1.5.4,3.24-.23,4.42-.62,1.16-2.32,2.39-3.53,2.38-1.01,0-2.01-1.77-2.99-2.77-.08-.09-.02-.32-.02-.49.07-34.27.13-68.55.2-102.82,2.22,1.65,4.44,3.29,6.67,4.94Z" style="fill: #6c0404; stroke-width: 0px;"/>
  <path d="M471.35,66.66c.02,34.9.04,69.81.03,104.71,0,2.05.65,4.57-2.88,4.55-3.43-.02-2.94-2.44-2.94-4.55,0-34.9.03-69.81.05-104.71,1.91,0,3.82,0,5.73,0Z" style="fill: #6c0404; stroke-width: 0px;"/>
  <path d="M441.52,66.65c0,34.77,0,69.55,0,104.32,0,2.45.47,5.76-3.51,4.56-1.21-.37-2.33-3.28-2.35-5.04-.18-15.97-.11-31.94-.1-47.92,0-18.63.02-37.27.04-55.91,1.98,0,3.95-.01,5.92-.02Z" style="fill: #6d0303; stroke-width: 0px;"/>
  <path d="M333.65,66.64c0,34.27,0,68.55,0,102.82,0,1.33.29,2.78-.14,3.96-.35.97-1.56,2.21-2.43,2.25-1.02.05-2.35-.88-3.06-1.76-.51-.64-.29-1.91-.29-2.9.01-34.77.03-69.54.06-104.32,1.96-.01,3.91-.02,5.87-.04Z" style="fill: #6d0303; stroke-width: 0px;"/>
  <path d="M363.47,66.66c.02,34.77.07,69.53-.06,104.3,0,1.64-1.33,4.49-2.43,4.7-3.47.64-3.24-2.34-3.24-4.68.02-34.77.05-69.53.08-104.3,1.88,0,3.76-.02,5.64-.02Z" style="fill: #640202; stroke-width: 0px;"/>
  <path d="M548.45,66.64c0,34.27-.01,68.55-.02,102.82,0,1.33.29,2.78-.14,3.96-.36.97-1.56,2.19-2.45,2.24-1.01.05-2.34-.87-3.05-1.76-.51-.64-.29-1.91-.29-2.91.01-34.77.04-69.54.07-104.32,1.96-.01,3.92-.02,5.87-.03Z" style="fill: #6c0404; stroke-width: 0px;"/>
  <path d="M426.75,66.63c-.03,39.58-.06,79.16-.08,118.74,0,1.33.36,2.81-.11,3.95-.52,1.26-1.8,2.2-2.76,3.28-.78-1.07-1.86-2.05-2.26-3.25-.39-1.2-.1-2.63-.1-3.96-.01-39.58-.02-79.16-.03-118.74,1.78,0,3.56,0,5.34,0Z" style="fill: #640202; stroke-width: 0px;"/>
  <path d="M304.53,70.23c.07,34.07.15,68.15.09,102.22,0,1.12-1.6,2.24-2.46,3.36-1.11-1.1-2.63-2.02-3.22-3.35-.55-1.25-.13-2.94-.13-4.44-.08-30.92-.15-61.83-.23-92.75,1.99-1.69,3.97-3.37,5.95-5.05Z" style="fill: #6c0404; stroke-width: 0px;"/>
  <path d="M519.52,66.63c-.01,34.27-.02,68.54-.04,102.81,0,1.5.23,3.08-.18,4.46-.24.8-1.56,1.75-2.39,1.75-.84,0-2.16-.95-2.4-1.74-.42-1.38-.18-2.96-.19-4.46-.02-34.27-.03-68.54-.04-102.81,1.75,0,3.5,0,5.24,0Z" style="fill: #640202; stroke-width: 0px;"/>
  <path d="M412.51,66.65c0,34.47.01,68.94,0,103.4,0,1.32.17,2.79-.34,3.92-.36.81-1.73,1.65-2.62,1.61-.74-.03-1.79-1.21-2.05-2.08-.36-1.23-.13-2.64-.13-3.97-.02-34.3-.04-68.6-.06-102.9,1.73,0,3.46,0,5.19.01Z" style="fill: #610202; stroke-width: 0px;"/>
  <path d="M583.68,202.92c-.45-1.66-1.29-3.31-1.29-4.97-.08-37.02-.07-74.04,0-111.05,0-1.68.77-3.36,1.18-5.04.31,2.28.9,4.57.9,6.85.06,35.95.05,71.9,0,107.84,0,2.12-.51,4.24-.78,6.37Z" style="fill: #e31919; stroke-width: 0px;"/>
  <path d="M766.28,777.53c-.45,9.35-.45,18.14-1.36,26.85-2.14,20.35-3.85,40.8-7.3,60.94-7.14,41.72-20.3,81.28-45.54,116-19.86,27.32-45.13,48.21-75.1,63.55-37.7,19.3-78.16,28.71-119.9,33.54-39.11,4.53-78.32,5.59-117.62,3.16-35.77-2.22-71.24-6.56-105.76-16.64-31.85-9.3-61.7-22.72-88.03-43.37-29.38-23.04-50.52-52.18-64.86-86.45-14.21-33.93-21.54-69.5-24.85-105.98-1.41-15.57-2.39-31.19-3.52-46.79-.13-1.78-.02-3.59-.02-6.19,3.71.8,7.02,1.5,10.33,2.24,24.66,5.51,49.18,11.78,74.01,16.37,31.51,5.83,63.16,11.21,94.95,15.1,31.3,3.83,62.82,6.64,94.33,7.94,38.54,1.58,77.16,1.71,115.74,1.3,21.58-.23,43.18-2.32,64.68-4.5,25.59-2.59,51.29-5.04,76.57-9.61,33.51-6.06,66.67-14.06,99.95-21.37,7.58-1.66,15.04-3.91,23.32-6.08ZM339.54,1062.16c.18-.68.37-1.37.55-2.05-.91-.66-1.79-1.38-2.75-1.96-25.4-15.18-44.16-36.52-58.18-62.35-14.78-27.21-23.86-56.46-28.69-86.75-4.63-29.04-6.98-58.44-10.13-87.7-.36-3.38-1.26-4.77-4.78-5.47-34.24-6.81-68.43-13.85-102.63-20.81-1.85-.38-3.72-.62-5.82-.97,0,2.6-.16,4.58.03,6.53,1.42,14.74,2.56,29.51,4.45,44.19,4.41,34.35,12.69,67.66,28.23,98.84,15.86,31.81,38.46,57.65,68.33,77.12,17.82,11.62,36.87,20.73,57.08,27.02,17.87,5.56,36.2,9.63,54.32,14.37ZM751.67,795.84c-12.15,2.98-23.03,6-34.07,8.28-25.07,5.18-50.21,10.05-75.35,14.9-2.69.52-3.89,1.19-4.15,4.23-1.55,18.4-3.09,36.8-5.18,55.14-4.04,35.54-11.66,70.24-26.26,103.08-14.32,32.23-35.01,59.15-65.87,77.34-.77.46-1.37,1.22-2.04,1.84.14.39.28.78.43,1.17,11.47-2.59,22.99-4.97,34.39-7.82,25.98-6.5,50.63-16.34,73.4-30.54,43.85-27.33,70.92-67.28,86.42-115.81,8.9-27.87,13.36-56.62,16.45-85.61.89-8.38,1.2-16.82,1.84-26.21ZM254.36,819.25c0,1.87-.1,3.01.01,4.13,2.14,21.85,3.81,43.77,6.61,65.53,3.31,25.79,9.36,51.01,18.73,75.36,19.15,49.79,51.77,85.11,105.13,98.19,7.12,1.75,14.34,3.05,22.68,4.81-1-2.03-1.2-2.64-1.56-3.14-8.2-11.35-13.3-24.17-17.17-37.46-10.41-35.7-13.94-72.51-16.46-109.38-1.85-27.06-2.43-54.21-3.5-81.33-.1-2.55-.21-4.46-3.53-4.74-15.73-1.3-31.45-2.66-47.16-4.21-13.22-1.31-26.42-2.85-39.62-4.43-7.87-.94-15.7-2.16-24.16-3.34ZM472.64,1067.1c6.06-1.21,12.87-2.38,19.58-3.95,33.09-7.7,60.5-24.41,81.17-51.67,19.91-26.27,30.64-56.57,37.96-88.21,7.49-32.34,11.12-65.25,12.79-98.38.04-.76-.22-1.53-.37-2.55-4.19.52-8.11,1.04-12.04,1.47-18.81,2.07-37.61,4.32-56.45,6.09-13.57,1.27-27.19,2.03-40.8,2.72-3.97.2-4.9,1.73-4.96,5.47-.71,41.95-2.63,83.83-7.68,125.52-2.81,23.16-6.2,46.24-13.88,68.32-4.16,11.95-10.07,23.29-15.31,35.16ZM382.56,833.45c0,1.24-.06,2.87,0,4.49,1,24.11,1.77,48.23,3.1,72.32,1.94,35.08,5.47,69.99,14.04,104.18,3.82,15.21,8.58,30.04,18.23,42.84,11.39,15.09,32.56,15.46,43.01-.58,5.38-8.26,9.92-17.35,13.24-26.63,8.78-24.59,12.78-50.38,14.9-76.21,3.15-38.29,4.6-76.72,6.76-115.09.09-1.6.01-3.2.01-5.32h-113.31Z" style="fill: #faf4f4; stroke-width: 0px;"/>
  <path d="M759.15,475.6c.19,6.62.37,13.23.56,19.85.19,5.03.38,10.06.57,15.09.16,3.96.32,7.92.48,11.88-1.41,3.47,1.88,9.05-4.61,10.24-.96.2-1.91.4-2.87.6-.7.18-1.4.37-2.1.55-4.68,1.24-9.35,2.49-14.03,3.73-1,.26-2,.52-2.99.77-1.07.22-2.14.45-3.22.67-.76.19-1.52.38-2.28.57-2.16.44-4.32.88-6.49,1.31-1.72.38-3.44.77-5.16,1.15-3.02.6-6.04,1.2-9.05,1.8-1,.32-2,.64-3,.96l-4.76.89c-.71.19-1.42.38-2.13.57l-1.86.33c-1.75.36-3.51.72-5.26,1.08-1.91.31-3.82.63-5.73.94-1.35.26-2.71.53-4.06.79-4.64.78-9.28,1.55-13.92,2.33-.69.21-1.38.43-2.07.64-4.64.77-9.27,1.53-13.91,2.3-1.35.25-2.71.51-4.06.76-1.31.19-2.62.37-3.93.56-.7.12-1.4.24-2.1.36-4.02.53-8.03,1.06-12.05,1.59-.61.19-1.23.39-1.84.58-1.68.15-3.36.3-5.05.45-.56.09-1.13.18-1.69.27-3.74.52-7.49,1.04-11.23,1.56-.68.21-1.37.42-2.05.64-6.98.78-13.95,1.56-20.93,2.35-1.69.2-3.38.4-5.07.61-2.63.24-5.27.49-7.9.73-.7.08-1.4.16-2.09.24-10.99.89-21.98,1.78-32.97,2.67-2.5.15-5,.3-7.5.44-9.12.52-18.24,1.04-27.36,1.57-.7.1-1.4.21-2.09.31-9.63.09-19.26.28-28.9.26-26.27-.05-52.53-.19-78.8-.3-.7-.1-1.4-.2-2.1-.3-9.12-.52-18.24-1.03-27.36-1.55-2.83-.15-5.66-.3-8.48-.45-2.35-.19-4.71-.37-7.06-.56-.68-.17-1.36-.33-2.05-.5-4.3-.21-8.59-.42-12.89-.64-.7-.12-1.4-.24-2.1-.36-3.3-.21-6.6-.42-9.9-.63-.7-.07-1.39-.15-2.09-.22-2.96-.26-5.92-.52-8.88-.78-1.7-.21-3.4-.42-5.1-.63-5.01-.6-10.01-1.19-15.02-1.79l-.91-.02c-8.99-1.13-17.99-2.27-26.98-3.4-.68-.21-1.36-.42-2.03-.63-6.63-.84-13.26-1.67-19.88-2.51-1.03-.2-2.06-.4-3.09-.59-4.01-.63-8.01-1.27-12.02-1.9-.32-.03-.63-.06-.95-.09-6.64-1.13-13.29-2.26-19.93-3.39-2.35-.4-4.71-.8-7.06-1.2-.6-.1-1.19-.2-1.79-.3-2.4-.43-4.8-.86-7.2-1.28-.63-.09-1.27-.17-1.9-.26-.7-.17-1.4-.34-2.1-.51-1.99-.36-3.99-.72-5.98-1.09-.93-.28-1.86-.56-2.79-.84-3.67-.66-7.33-1.33-11-1.99-1.4-.31-2.81-.62-4.21-.93-9.01-1.85-18.03-3.64-27.02-5.59-3.85-.83-7.59-2.25-11.45-2.94-3.64-.65-4.76-2.21-4.65-6.02.94-30.78,1.62-61.57,2.39-92.35.04-1.66.12-3.33.25-4.99,2.41-29.75,15.18-54.88,34.88-76.69,27.05-29.94,60.64-49.3,99.19-60.51,16.91-4.92,34.16-7.19,51.71-7.23,68.06-.15,136.13-.32,204.19-.25,22.62.02,45.29-.08,67.84,1.37,33.09,2.13,63.59,13.56,92.36,29.56,23.15,12.88,43.74,29.02,60.45,49.85,12.7,15.83,21.67,33.41,25.82,53.35.18.7.36,1.4.55,2.1.24,2,.48,4.01.71,6.01.06.67.12,1.33.18,2,.14,5.63.29,11.25.43,16.88.17,10.03.34,20.06.51,30.09ZM381.75,474.7c.26.02.51.04.77.06,0,25.14.07,50.28-.08,75.42-.02,3.62.83,4.89,4.66,4.91,29.95.21,59.9.66,89.85.98,4.82.05,9.65-.3,14.47-.17,3.83.11,4.62-1.61,4.59-5.15-.32-40.13-.22-80.26-.8-120.38-.47-33.06-3.86-65.85-13.53-97.62-3.08-10.1-7.72-19.74-11.98-29.44-1.74-3.96-5.18-5.41-9.79-5.31-13.81.29-27.65.58-41.43-.08-7.54-.37-11.48,2.94-14.16,9.11-1.13,2.59-2.21,5.21-3.19,7.86-7.73,21.05-12.8,42.82-14.45,65.09-2.33,31.51-3.34,63.13-4.92,94.7ZM394.59,298.13c-10.81,0-20.61.3-30.38-.06-20.03-.75-37.26,6.35-52.29,18.87-33.24,27.69-50.47,63.94-53.98,106.52-1.73,21.03-.92,42.26-1.32,63.4-.33,17.15-.71,34.29-1.16,51.44-.08,2.95-.04,4.93,3.93,5.25,8.43.67,16.79,2.15,25.2,3.02,23.97,2.47,47.95,4.85,71.94,7.14,3.89.37,7.84.05,12.28.05,0-2.42,0-4.38,0-6.34.2-38.3.43-76.59.61-114.89.13-28.04,2.67-55.83,8.06-83.37,3.4-17.35,8.14-34.22,17.1-51.03ZM623.16,544.63c0-2.48.03-4.14,0-5.79-.58-32.78-1.55-65.56-1.65-98.35-.14-45.65-16.95-83.89-49.96-115.03-14.25-13.45-30.61-24-50.47-26.38-12.46-1.5-25.21-.59-37.84-.73-.23,0-.46.38-.66.57,2.89,6.4,6.19,12.56,8.53,19.07,11.06,30.81,16.34,62.83,17.15,95.38,1.09,43.92.94,87.87,1.31,131.81.09,10.5.07,10.45,10.69,9.54,20.36-1.74,40.74-3.23,61.08-5.17,13.85-1.32,27.65-3.23,41.82-4.91ZM312.79,298.4c-1.33-.09-2.41-.31-3.47-.22-10.76.87-21.65,1-32.23,2.84-44.38,7.74-82.3,27.86-112.5,61.49-20.15,22.43-31.3,48.47-30.87,79.37.34,24.61-.99,49.24-1.88,73.85-.14,3.92,1.14,5.24,4.67,5.92,25.96,4.99,51.87,10.19,77.84,15.12,8.76,1.66,17.63,2.72,26.96,4.13.14-2.35.29-3.97.32-5.59.48-22.63.78-45.26,1.47-67.89.59-19.1.36-38.36,2.76-57.26,4.57-36.05,20.28-67.27,45.72-93.29,6.42-6.56,13.86-12.13,21.19-18.46ZM636.36,542.39c3.75-.48,6.05-.63,8.3-1.07,32.45-6.47,64.88-13.04,97.35-19.39,3.86-.75,4.62-2.42,4.51-6.07-.81-25.79-1.67-51.58-1.94-77.38-.15-14.44-2.95-28.06-9.25-40.99-12.72-26.09-33-45.24-56.68-61.11-28.48-19.08-59.73-31.26-93.64-36.37-8.08-1.22-16.3-1.46-24.77-2.18.3,1.32.28,1.71.46,1.89.47.46,1,.86,1.54,1.24,47.95,33.76,72,80.12,72.98,138.6.45,26.47.79,52.94,1.13,79.41.1,7.61.01,15.22.01,23.43Z" style="fill: #faf4f4; stroke-width: 0px;"/>
  <path d="M647.2,555.39c1.35-.25,2.71-.51,4.06-.76.31.87.38,2.25.96,2.51,2.88,1.28,11-1.87,12.95-4.81.69-.21,1.38-.43,2.07-.64-.17,3.48,2.6,3.37,4.33,2.7,3.34-1.29,8.68.9,9.59-5.03,1.35-.26,2.71-.53,4.06-.79.76.9,1.53,1.81,2.29,2.71,1.15-1.22,2.29-2.44,3.44-3.66,1.75-.36,3.51-.72,5.26-1.08,3.03,3.29,5.5,2.79,8.76-1.78,1-.32,2-.64,3-.96,4.1,3.04,7.24,2.41,9.05-1.8,1.72-.38,3.44-.77,5.16-1.15.88.78,2.14,2.39,2.56,2.2,1.57-.73,5.09.3,3.93-3.51.76-.19,1.52-.38,2.28-.57,1.57,2.19,2.65,1.97,3.22-.67,1-.26,2-.52,2.99-.77,1.44.59,2.86,1.64,4.32,1.7,8.88.4,17.88-.25,26.61,1.03,10.24,1.5,13.49,5.93,14.88,18.14,1.12,9.85,1.75,19.79,2.06,29.7.57,17.93.73,35.88,1.07,53.81.32,17.11.5,34.22,1.05,51.32.38,11.91,2.1,23.84,1.69,35.7-.34,9.78-2.74,19.52-4.62,29.21-1.22,6.24-6.26,9.46-11.74,11.11-10.27,3.11-20.7,5.69-31.15,8.17-14.47,3.43-28.95,6.87-43.54,9.73-15.54,3.06-31.2,5.6-46.84,8.1-13.69,2.18-27.4,4.26-41.17,5.89-11.97,1.42-24.03,2.18-36.05,3.17-16.47,1.35-32.94,2.68-49.42,3.95-5.77.45-11.56.93-17.35,1.01-28.75.42-57.51,1.16-86.25.88-19.85-.19-39.71-1.58-59.53-2.93-19.45-1.32-38.93-2.68-58.27-5.07-30.46-3.76-60.88-7.93-91.18-12.81-24.44-3.94-48.69-9.09-72.99-13.9-10.2-2.02-20.31-4.53-30.46-6.85-9.98-2.28-14.49-9.69-16.19-18.77-2.89-15.39-3.18-30.96-1.23-46.54.06-.49.03-1,.04-1.5.33-22.27.62-44.54,1.02-66.8.24-13.78.38-27.57,1.07-41.33.6-12.04,1.77-24.07,2.95-36.07,1.1-11.28,8.01-17.86,19.31-17.95,11.18-.09,22.45-1.7,33.55.95,2.83.68,5.56,1.73,8.35,2.59,2.05.63,3.71.57,3.66-2.24,1.4.31,2.81.62,4.21.93,1.61,4.31,6.47,5.19,11,1.99.93.28,1.86.56,2.79.84,2.53,4.22,6.97,5.05,9.98,1.86,2.4.43,4.8.86,7.2,1.28.23.7.45,1.39.68,2.09.37-.6.74-1.19,1.11-1.79,2.35.4,4.71.8,7.06,1.2-.34,4.14,3.01,3.74,5.39,4.14,7.92,1.34,15.88,2.46,23.82,3.68,7.26,1.12,14.5,2.42,21.79,3.33,7.67.96,15.41,1.4,23.08,2.32,8.1.98,16.15,2.34,24.25,3.3.72.08,1.64-1.58,2.47-2.43,1.7.21,3.4.42,5.1.63-.69.62-1.38,1.24-2.34,2.1,8.53,1.06,16.74,2.49,25.01,3.02,15.37.98,30.78,1.43,46.17,2.1.66.03,1.33,0,2,.05,16.02.98,32.05,2.91,48.06,2.75,30.68-.31,61.34-1.72,92.01-2.83,12.56-.46,25.11-1.32,37.66-2.01.33-.02.66-.09.99-.12,12.42-1.28,24.86-2.34,37.23-3.98,3.36-.44,6.49-2.62,9.73-3.99.68-.21,1.37-.42,2.05-.64.54.79,1.07,2.26,1.61,2.26,3.42.01,6.94.14,10.22-.66,2.23-.55,4.11-2.53,6.15-3.88.61-.19,1.23-.39,1.84-.58,1.29.88,2.67,2.6,3.87,2.48,5.2-.52,10.35-1.57,16.01-2.51-1.05-1.44-1.43-1.96-1.8-2.48ZM778.12,748.37c1.06-1.07,2.58-1.95,3.11-3.23,3.86-9.4,3.72-19.08,3.13-29.16-1.15-19.54-.86-39.15-1.26-58.74-.23-11.27-.66-22.53-.97-33.8-.36-13.1-.31-26.22-1.15-39.28-.48-7.51-2.05-15.01-3.87-22.32-.53-2.11-3.63-3.58-5.55-5.35-.23-3.57-.46-7.14-.71-11.14-2.91.44-5.31.8-7.71,1.16-1.01.3-2.01.61-3.02.91-3.32.7-6.64,1.39-9.96,2.09-2.69-5.24-7.41-4.37-11.73-3.48-11.16,2.3-22.18,5.24-33.36,7.41-17.49,3.4-35.04,6.56-52.62,9.47-16.76,2.77-33.56,5.35-50.4,7.53-13.58,1.76-27.25,2.99-40.9,4.09-22.57,1.82-45.15,4.53-67.74,4.74-45.8.42-91.65,1.78-137.38-2.68-11.19-1.09-22.48-1.09-33.67-2.21-16.41-1.65-32.78-3.75-49.15-5.86-17.51-2.26-35.09-4.17-52.46-7.29-26-4.67-51.8-10.44-77.76-15.32-5.71-1.07-11.96-1.65-17.12,2.68-2.32-.39-4.63-.79-6.95-1.18-1.01-.29-2.02-.58-3.03-.87-.82-.03-1.65.03-2.45-.11-5.93-1.07-6.33-.76-6.45,5.29-.07,3.6-.13,7.2-.19,10.8-5.77.35-6.28,5.18-6.73,9.02-1.39,11.65-2.72,23.35-3.04,35.06-.71,25.59-.74,51.19-1.15,76.79-.1,6.12-.65,12.23-.93,18.36-.35,7.78-1.54,15.66-.68,23.31,1.01,8.88,3.83,17.55,5.95,26.29.11.45,1,.71,1.53,1.06,1.17,5.05,5.92,3.66,9.11,5.08,5.66,7.83,14.38,9.96,23,11.81,15.66,3.35,31.39,6.34,47.14,9.27,18.32,3.4,36.62,7.01,55.04,9.74,23.18,3.44,46.45,6.32,69.73,9.02,19.85,2.31,39.73,4.46,59.66,5.89,21.31,1.53,42.68,2.79,64.03,2.94,22.55.16,45.11-1.06,67.66-1.82,16.23-.55,32.47-1.12,48.68-2.05,12.71-.72,25.42-1.65,38.06-3.12,16.55-1.93,33.06-4.28,49.53-6.82,21.84-3.38,43.68-6.84,65.43-10.8,14.63-2.66,29.16-5.99,43.62-9.49,9.86-2.39,19.96-4.74,26.73-13.47l1.96-.2c.68-.28,1.35-.56,2.03-.85l3.07-1.12c.64-2.67,1.27-5.34,1.91-8.01Z" style="fill: #780707; stroke-width: 0px;"/>
  <path d="M759.15,475.6c-.17-10.03-.34-20.06-.51-30.09.44.63,1.26,1.26,1.27,1.9.07,8.98.04,17.97-.01,26.96,0,.41-.49.82-.75,1.24Z" style="fill: #913d3d; stroke-width: 0px;"/>
  <path d="M760.28,510.54c-.19-5.03-.38-10.06-.57-15.09.19,5.03.38,10.06.57,15.09Z" style="fill: #913d3d; stroke-width: 0px;"/>
  <path d="M756.16,532.66c6.49-1.18,3.2-6.77,4.61-10.24.29,2.91.95,5.86.6,8.68-.09.72-3.38,1.05-5.21,1.55Z" style="fill: #913d3d; stroke-width: 0px;"/>
  <path d="M751.19,533.8c.7-.18,1.4-.37,2.1-.55-.7.18-1.4.37-2.1.55Z" style="fill: #913d3d; stroke-width: 0px;"/>
  <path d="M757.32,420.61c-.18-.7-.36-1.4-.55-2.1.18.7.36,1.4.55,2.1Z" style="fill: #913d3d; stroke-width: 0px;"/>
  <path d="M758.21,428.63c-.06-.67-.12-1.33-.18-2,.06.67.12,1.33.18,2Z" style="fill: #913d3d; stroke-width: 0px;"/>
  <path d="M339.54,1062.16c-18.13-4.73-36.46-8.8-54.32-14.37-20.2-6.29-39.25-15.4-57.08-27.02-29.87-19.48-52.47-45.31-68.33-77.12-15.54-31.18-23.82-64.49-28.23-98.84-1.89-14.68-3.03-29.45-4.45-44.19-.19-1.95-.03-3.94-.03-6.53,2.1.35,3.97.6,5.82.97,34.21,6.96,68.4,14.01,102.63,20.81,3.52.7,4.41,2.09,4.78,5.47,3.15,29.26,5.51,58.67,10.13,87.7,4.83,30.3,13.91,59.55,28.69,86.75,14.03,25.83,32.78,47.17,58.18,62.35.96.58,1.84,1.3,2.75,1.96-.18.68-.37,1.37-.55,2.05Z" style="fill: #f71e1e; stroke-width: 0px;"/>
  <path d="M751.67,795.84c-.64,9.38-.94,17.83-1.84,26.21-3.09,28.99-7.55,57.74-16.45,85.61-15.5,48.53-42.57,88.48-86.42,115.81-22.77,14.19-47.42,24.04-73.4,30.54-11.4,2.85-22.92,5.23-34.39,7.82-.14-.39-.28-.78-.43-1.17.68-.62,1.27-1.39,2.04-1.84,30.86-18.2,51.55-45.12,65.87-77.34,14.6-32.84,22.21-67.54,26.26-103.08,2.09-18.34,3.63-36.75,5.18-55.14.26-3.05,1.46-3.72,4.15-4.23,25.14-4.85,50.28-9.72,75.35-14.9,11.04-2.28,21.92-5.3,34.07-8.28Z" style="fill: #f71e1e; stroke-width: 0px;"/>
  <path d="M254.36,819.25c8.46,1.18,16.29,2.4,24.16,3.34,13.19,1.58,26.4,3.12,39.62,4.43,15.7,1.56,31.43,2.92,47.16,4.21,3.32.27,3.43,2.18,3.53,4.74,1.07,27.11,1.65,54.26,3.5,81.33,2.52,36.87,6.05,73.68,16.46,109.38,3.87,13.29,8.97,26.11,17.17,37.46.36.5.56,1.11,1.56,3.14-8.34-1.75-15.56-3.06-22.68-4.81-53.36-13.09-85.98-48.4-105.13-98.19-9.37-24.36-15.42-49.57-18.73-75.36-2.79-21.77-4.46-43.68-6.61-65.53-.11-1.12-.01-2.25-.01-4.13Z" style="fill: #6c0404; stroke-width: 0px;"/>
  <path d="M472.64,1067.1c5.24-11.87,11.15-23.21,15.31-35.16,7.68-22.08,11.08-45.16,13.88-68.32,5.05-41.69,6.96-83.57,7.68-125.52.06-3.74.99-5.27,4.96-5.47,13.61-.69,27.24-1.44,40.8-2.72,18.84-1.77,37.64-4.02,56.45-6.09,3.93-.43,7.85-.96,12.04-1.47.16,1.02.41,1.79.37,2.55-1.67,33.13-5.3,66.03-12.79,98.38-7.33,31.64-18.05,61.94-37.96,88.21-20.66,27.26-48.07,43.97-81.17,51.67-6.71,1.56-13.52,2.73-19.58,3.95Z" style="fill: #6c0404; stroke-width: 0px;"/>
  <path d="M382.56,833.45h113.31c0,2.12.08,3.72-.01,5.32-2.16,38.37-3.61,76.8-6.76,115.09-2.12,25.83-6.12,51.62-14.9,76.21-3.32,9.29-7.86,18.37-13.24,26.63-10.45,16.04-31.61,15.68-43.01.58-9.66-12.8-14.42-27.63-18.23-42.84-8.58-34.19-12.1-69.1-14.04-104.18-1.33-24.09-2.1-48.21-3.1-72.32-.07-1.62,0-3.25,0-4.49Z" style="fill: #6c0404; stroke-width: 0px;"/>
  <path d="M381.75,474.7c1.57-31.57,2.58-63.18,4.92-94.7,1.65-22.27,6.72-44.04,14.45-65.09.97-2.65,2.06-5.27,3.19-7.86,2.68-6.17,6.62-9.47,14.16-9.11,13.78.67,27.63.38,41.43.08,4.61-.1,8.05,1.35,9.79,5.31,4.27,9.7,8.91,19.34,11.98,29.44,9.68,31.77,13.06,64.56,13.53,97.62.58,40.12.47,80.25.8,120.38.03,3.54-.75,5.25-4.59,5.15-4.82-.13-9.65.22-14.47.17-29.95-.32-59.9-.77-89.85-.98-3.84-.03-4.69-1.29-4.66-4.91.15-25.14.08-50.28.08-75.42-.26-.02-.51-.04-.77-.06Z" style="fill: #6c0404; stroke-width: 0px;"/>
  <path d="M394.59,298.13c-8.96,16.8-13.7,33.67-17.1,51.03-5.39,27.54-7.93,55.33-8.06,83.37-.18,38.3-.41,76.59-.61,114.89-.01,1.96,0,3.92,0,6.34-4.44,0-8.39.32-12.28-.05-23.99-2.28-47.97-4.67-71.94-7.14-8.42-.87-16.77-2.35-25.2-3.02-3.97-.32-4.01-2.3-3.93-5.25.45-17.14.83-34.29,1.16-51.44.4-21.14-.41-42.38,1.32-63.4,3.51-42.58,20.74-78.84,53.98-106.52,15.03-12.52,32.25-19.62,52.29-18.87,9.77.36,19.57.06,30.38.06Z" style="fill: #6c0404; stroke-width: 0px;"/>
  <path d="M623.16,544.63c-14.16,1.69-27.96,3.59-41.82,4.91-20.34,1.94-40.72,3.43-61.08,5.17-10.63.91-10.61.96-10.69-9.54-.37-43.94-.22-87.89-1.31-131.81-.81-32.56-6.09-64.57-17.15-95.38-2.34-6.51-5.64-12.68-8.53-19.07.21-.19.44-.57.66-.57,12.62.14,25.37-.77,37.84.73,19.86,2.38,36.21,12.93,50.47,26.38,33,31.14,49.82,69.38,49.96,115.03.1,32.78,1.07,65.57,1.65,98.35.03,1.66,0,3.31,0,5.79Z" style="fill: #6c0404; stroke-width: 0px;"/>
  <path d="M312.79,298.4c-7.33,6.34-14.77,11.9-21.19,18.46-25.45,26.02-41.16,57.24-45.72,93.29-2.4,18.9-2.17,38.15-2.76,57.26-.7,22.62-.99,45.26-1.47,67.89-.03,1.62-.18,3.24-.32,5.59-9.33-1.41-18.21-2.46-26.96-4.13-25.97-4.93-51.88-10.13-77.84-15.12-3.54-.68-4.81-2-4.67-5.92.88-24.61,2.21-49.25,1.88-73.85-.42-30.9,10.72-56.94,30.87-79.37,30.2-33.62,68.12-53.74,112.5-61.49,10.59-1.85,21.48-1.97,32.23-2.84,1.06-.09,2.14.13,3.47.22Z" style="fill: #f71e1e; stroke-width: 0px;"/>
  <path d="M636.36,542.39c0-8.22.08-15.83-.01-23.43-.34-26.47-.68-52.94-1.13-79.41-.99-58.48-25.04-104.85-72.98-138.6-.54-.38-1.08-.78-1.54-1.24-.18-.18-.15-.56-.46-1.89,8.46.72,16.69.97,24.77,2.18,33.9,5.11,65.16,17.3,93.64,36.37,23.68,15.87,43.97,35.02,56.68,61.11,6.3,12.93,9.1,26.55,9.25,40.99.27,25.8,1.13,51.59,1.94,77.38.11,3.64-.65,5.31-4.51,6.07-32.47,6.35-64.9,12.92-97.35,19.39-2.25.45-4.55.6-8.3,1.07Z" style="fill: #f71e1e; stroke-width: 0px;"/>
  <path d="M607.26,561.39c-3.24,1.38-6.37,3.55-9.73,3.99-12.37,1.63-24.82,2.7-37.23,3.98-.33.03-.66.1-.99.12-12.55.68-25.1,1.55-37.66,2.01-30.67,1.11-61.33,2.52-92.01,2.83-16.01.16-32.04-1.77-48.06-2.75-.66-.04-1.33-.02-2-.05-15.39-.67-30.8-1.12-46.17-2.1-8.27-.53-16.48-1.96-25.01-3.02.97-.87,1.65-1.49,2.34-2.1,2.96.26,5.92.52,8.88.78.7.07,1.39.15,2.09.22,3.3.21,6.6.42,9.9.63.7.12,1.4.24,2.1.36,4.3.21,8.59.42,12.89.64.68.17,1.36.33,2.05.5,2.35.19,4.71.37,7.06.56,2.83.15,5.66.3,8.48.45,9.12.52,18.24,1.03,27.36,1.55.7.1,1.4.2,2.1.3,26.27.11,52.53.25,78.8.3,9.63.02,19.26-.17,28.9-.26.7-.1,1.4-.21,2.09-.31,9.12-.52,18.24-1.04,27.36-1.57,2.5-.15,5-.29,7.5-.44,10.99-.89,21.98-1.78,32.97-2.67.7-.08,1.4-.16,2.09-.24,2.63-.24,5.27-.49,7.9-.73,1.9,1.5,3.7,2.26,5.07-.61,6.98-.78,13.95-1.56,20.93-2.35Z" style="fill: #6d0505; stroke-width: 0px;"/>
  <path d="M305.65,563.67c-.83.85-1.75,2.52-2.47,2.43-8.1-.96-16.15-2.32-24.25-3.3-7.68-.93-15.41-1.37-23.08-2.32-7.29-.91-14.52-2.22-21.79-3.33-7.94-1.22-15.9-2.34-23.82-3.68-2.38-.4-5.73,0-5.39-4.14,6.64,1.13,13.29,2.26,19.93,3.39.32.03.63.06.95.09,4.01.63,8.01,1.27,12.02,1.9,1.03.2,2.06.4,3.09.59,6.63.84,13.26,1.67,19.88,2.51.68.21,1.36.42,2.03.63,8.99,1.13,17.99,2.27,26.98,3.4.31,0,.61.02.91.02,5.01.6,10.01,1.19,15.02,1.79Z" style="fill: #6d0505; stroke-width: 0px;"/>
  <path d="M647.2,555.39c.38.52.75,1.04,1.8,2.48-5.66.94-10.81,1.99-16.01,2.51-1.19.12-2.57-1.61-3.87-2.48,4.02-.53,8.03-1.06,12.05-1.59.7-.12,1.4-.24,2.1-.36,1.31-.19,2.62-.37,3.93-.56Z" style="fill: #6d0505; stroke-width: 0px;"/>
  <path d="M681.16,549.37c-.91,5.93-6.25,3.73-9.59,5.03-1.74.67-4.51.78-4.33-2.7,4.64-.78,9.28-1.55,13.92-2.33Z" style="fill: #6d0505; stroke-width: 0px;"/>
  <path d="M627.28,558.48c-2.04,1.34-3.92,3.33-6.15,3.88-3.27.8-6.8.67-10.22.66-.54,0-1.07-1.47-1.61-2.26,3.74-.52,7.49-1.04,11.24-1.56.57-.09,1.13-.18,1.69-.27,1.68-.15,3.36-.3,5.05-.45Z" style="fill: #6d0505; stroke-width: 0px;"/>
  <path d="M665.17,552.33c-1.95,2.94-10.07,6.09-12.95,4.81-.58-.26-.65-1.64-.96-2.51,4.64-.77,9.27-1.53,13.91-2.3Z" style="fill: #6d0505; stroke-width: 0px;"/>
  <path d="M176.01,543.85c-4.53,3.2-9.39,2.32-11-1.99,3.67.66,7.33,1.33,11,1.99Z" style="fill: #6d0505; stroke-width: 0px;"/>
  <path d="M188.78,546.55c-3.01,3.19-7.45,2.36-9.98-1.86,1.99.36,3.99.72,5.98,1.09.7.17,1.4.34,2.1.51.63.09,1.27.17,1.9.26Z" style="fill: #6d0505; stroke-width: 0px;"/>
  <path d="M717.02,542c-1.82,4.22-4.95,4.84-9.05,1.8,3.02-.6,6.04-1.2,9.05-1.8Z" style="fill: #6d0505; stroke-width: 0px;"/>
  <path d="M728.67,539.54c1.17,3.81-2.36,2.78-3.93,3.51-.42.2-1.68-1.42-2.56-2.2,2.16-.44,4.32-.88,6.49-1.31Z" style="fill: #6d0505; stroke-width: 0px;"/>
  <path d="M704.97,544.77c-3.25,4.57-5.73,5.08-8.76,1.78.62-.11,1.24-.22,1.86-.33.71-.19,1.42-.38,2.13-.57,1.59-.3,3.17-.59,4.76-.89Z" style="fill: #6d0505; stroke-width: 0px;"/>
  <path d="M690.95,547.63c-1.15,1.22-2.29,2.44-3.44,3.66-.76-.9-1.53-1.81-2.29-2.71,1.91-.31,3.82-.63,5.73-.94Z" style="fill: #6d0505; stroke-width: 0px;"/>
  <path d="M586.33,563.73c-1.37,2.86-3.18,2.11-5.07.61,1.69-.2,3.38-.4,5.07-.61Z" style="fill: #780707; stroke-width: 0px;"/>
  <path d="M364.19,568.42c-2.83-.15-5.66-.3-8.48-.45,2.83.15,5.66.3,8.48.45Z" style="fill: #780707; stroke-width: 0px;"/>
  <path d="M538.29,567.98c-2.5.15-5,.3-7.5.44,2.5-.15,5-.29,7.5-.44Z" style="fill: #780707; stroke-width: 0px;"/>
  <path d="M240.81,555.31c-1.03-.2-2.06-.4-3.09-.59,1.03.2,2.06.4,3.09.59Z" style="fill: #780707; stroke-width: 0px;"/>
  <path d="M734.17,538.31c-.57,2.65-1.64,2.86-3.22.67,1.07-.22,2.14-.45,3.22-.67Z" style="fill: #6d0505; stroke-width: 0px;"/>
  <path d="M393.65,570.27c-.7-.1-1.4-.2-2.1-.3.7.1,1.4.2,2.1.3Z" style="fill: #780707; stroke-width: 0px;"/>
  <path d="M348.64,567.42c-.68-.17-1.36-.33-2.05-.5.68.17,1.36.33,2.05.5Z" style="fill: #780707; stroke-width: 0px;"/>
  <path d="M333.71,566.28c-.7-.12-1.4-.24-2.1-.36.7.12,1.4.24,2.1.36Z" style="fill: #780707; stroke-width: 0px;"/>
  <path d="M262.73,558.45c-.68-.21-1.36-.42-2.03-.63.68.21,1.36.42,2.03.63Z" style="fill: #780707; stroke-width: 0px;"/>
  <path d="M573.35,565.07c-.7.08-1.4.16-2.09.24.7-.08,1.4-.16,2.09-.24Z" style="fill: #780707; stroke-width: 0px;"/>
  <path d="M321.72,565.3c-.7-.07-1.39-.15-2.09-.22.7.07,1.39.15,2.09.22Z" style="fill: #780707; stroke-width: 0px;"/>
  <path d="M197.77,548.13c-.37.6-.74,1.19-1.11,1.79-.23-.7-.45-1.39-.68-2.09.6.1,1.19.2,1.79.3Z" style="fill: #6d0505; stroke-width: 0px;"/>
  <path d="M700.21,545.66c-.71.19-1.42.38-2.13.57.71-.19,1.42-.38,2.13-.57Z" style="fill: #780707; stroke-width: 0px;"/>
  <path d="M186.88,546.29c-.7-.17-1.4-.34-2.1-.51.7.17,1.4.34,2.1.51Z" style="fill: #780707; stroke-width: 0px;"/>
  <path d="M643.27,555.95c-.7.12-1.4.24-2.1.36l2.1-.36Z" style="fill: #780707; stroke-width: 0px;"/>
  <path d="M503.43,569.99c-.7.1-1.4.21-2.09.31.7-.1,1.4-.21,2.09-.31Z" style="fill: #780707; stroke-width: 0px;"/>
  <path d="M622.24,558.93c-.56.09-1.13.18-1.69.27.56-.09,1.13-.18,1.69-.27Z" style="fill: #780707; stroke-width: 0px;"/>
  <path d="M225.71,552.82l-.95-.09.95.09Z" style="fill: #780707; stroke-width: 0px;"/>
  <path d="M290.63,561.88c-.3,0-.61-.02-.91-.02l.91.02Z" style="fill: #780707; stroke-width: 0px;"/>
  <path d="M776.21,756.38c-1.02.37-2.04.75-3.07,1.12-.68.28-1.35.56-2.03.85-.65.07-1.31.14-1.96.2-15.75,3.81-31.45,7.88-47.28,11.36-18.43,4.06-36.85,8.35-55.49,11.19-28.6,4.37-57.34,7.87-86.09,11.21-18.4,2.14-36.9,3.62-55.39,4.88-15.88,1.07-31.81,1.81-47.72,1.95-18.76.17-37.55-.12-56.3-.84-26.67-1.02-53.32-2.5-79.97-4.03-12.56-.72-25.12-1.69-37.61-3.15-16.59-1.93-33.14-4.23-49.64-6.77-25.34-3.9-50.71-7.65-75.9-12.37-22.43-4.2-44.62-9.63-66.92-14.52-3.19-1.41-7.95-.03-9.11-5.08.7-25.02,1.44-50.03,2.08-75.05.45-17.57.67-35.15,1.13-52.73.54-20.7,1.22-41.4,1.84-62.11.06-3.6.11-7.2.19-10.8.13-6.05.52-6.36,6.45-5.29.8.14,1.63.08,2.45.11,1.01.29,2.02.58,3.03.87,2.32.39,4.63.79,6.95,1.18,17.39,3.96,34.69,8.38,52.19,11.76,22.56,4.36,45.27,8.04,67.95,11.71,14.85,2.41,29.75,4.63,44.7,6.32,15.95,1.8,31.96,3.16,47.98,4.19,28.44,1.84,56.88,3.91,85.36,4.73,22.74.65,45.53-.14,68.28-.83,17.88-.54,35.78-1.43,53.6-3.01,25.37-2.26,50.71-5.02,76-8.09,14.6-1.77,29.14-4.22,43.59-6.97,19.18-3.65,38.27-7.75,57.35-11.92,9.17-2.01,18.2-4.62,27.29-6.95,3.32-.7,6.64-1.39,9.96-2.08,1.01-.3,2.01-.61,3.02-.92,2.4-.36,4.81-.72,7.71-1.16.26,4,.48,7.57.71,11.14.22,4.34.43,8.68.65,13.02.28,6.29.66,12.58.83,18.88.7,26.24,1.43,52.47,1.97,78.71.49,23.93.77,47.87,1.11,71.81.08,5.82.07,11.65.09,17.48ZM761.86,556.72c-2.54.52-4.8.9-7.02,1.45-15.13,3.71-30.15,8-45.41,11.07-23.07,4.63-46.24,8.95-69.51,12.43-27.36,4.1-54.83,7.66-82.35,10.51-20.95,2.16-42.05,3.87-63.08,3.96-40.4.17-80.83-.11-121.19-1.82-30.12-1.28-60.17-4.67-90.16-7.94-22.06-2.41-44.12-5.44-65.94-9.46-32.28-5.95-64.37-12.96-96.49-19.73-3.83-.81-4.74.19-4.81,3.71-.23,11.63-.62,23.26-.97,34.89-.64,21.27-1.34,42.54-1.92,63.81-.75,27.76-1.34,55.52-2.16,83.27-.11,3.64.95,5.52,4.61,6.28,9.42,1.96,18.74,4.39,28.18,6.21,27.02,5.2,54.03,10.51,81.15,15.15,20.41,3.49,40.94,6.34,61.49,8.88,17.44,2.15,34.96,3.73,52.48,5.06,24.49,1.86,48.99,3.64,73.52,4.7,17.57.76,35.21.67,52.79.24,25.73-.64,51.5-1.29,77.16-3.12,26.44-1.88,52.87-4.53,79.14-8.03,25.61-3.41,51.13-7.78,76.49-12.72,21.3-4.15,42.29-9.91,63.51-14.49,4.85-1.05,6.17-2.92,5.87-7.59-.6-9.45-.72-18.93-.96-28.4-.71-27.59-1.43-55.18-2.06-82.78-.47-20.63-.74-41.26-1.23-61.88-.1-4.44-.73-8.86-1.15-13.64Z" style="fill: #e31919; stroke-width: 0px;"/>
  <path d="M750.14,549.51c-9.09,2.34-18.13,4.95-27.29,6.95-19.07,4.17-38.17,8.28-57.35,11.92-14.45,2.75-28.99,5.2-43.59,6.97-25.29,3.07-50.62,5.83-76,8.09-17.82,1.58-35.72,2.47-53.6,3.01-22.75.69-45.54,1.48-68.28.83-28.48-.81-56.92-2.89-85.36-4.73-16.02-1.04-32.03-2.4-47.98-4.19-14.95-1.69-29.85-3.91-44.7-6.32-22.69-3.68-45.39-7.36-67.95-11.71-17.5-3.38-34.8-7.8-52.19-11.76,5.16-4.32,11.42-3.75,17.12-2.68,25.96,4.88,51.76,10.65,77.76,15.32,17.36,3.12,34.95,5.03,52.46,7.29,16.36,2.11,32.73,4.21,49.15,5.86,11.18,1.12,22.48,1.12,33.67,2.21,45.73,4.46,91.58,3.1,137.38,2.68,22.59-.21,45.18-2.92,67.74-4.74,13.66-1.1,27.32-2.33,40.9-4.09,16.84-2.18,33.64-4.76,50.4-7.53,17.58-2.91,35.13-6.07,52.62-9.47,11.18-2.17,22.21-5.11,33.36-7.41,4.31-.89,9.04-1.76,11.73,3.48Z" style="fill: #8f0707; stroke-width: 0px;"/>
  <path d="M110.85,757.46c22.3,4.89,44.49,10.32,66.92,14.52,25.19,4.72,50.57,8.47,75.9,12.37,16.51,2.54,33.06,4.84,49.64,6.77,12.49,1.46,25.05,2.43,37.61,3.15,26.65,1.53,53.3,3.01,79.97,4.03,18.75.72,37.53,1.01,56.3.84,15.91-.14,31.84-.88,47.72-1.95,18.49-1.25,36.98-2.73,55.39-4.88,28.74-3.34,57.49-6.84,86.09-11.21,18.63-2.85,37.06-7.14,55.49-11.19,15.83-3.48,31.52-7.55,47.28-11.36-6.77,8.73-16.87,11.08-26.73,13.47-14.46,3.5-28.99,6.83-43.62,9.49-21.74,3.96-43.58,7.42-65.43,10.8-16.47,2.55-32.98,4.89-49.53,6.82-12.64,1.47-25.35,2.4-38.06,3.12-16.21.92-32.45,1.5-48.68,2.05-22.55.76-45.11,1.98-67.66,1.82-21.35-.15-42.72-1.41-64.03-2.94-19.92-1.43-39.81-3.58-59.66-5.89-23.28-2.71-46.55-5.58-69.73-9.02-18.42-2.74-36.72-6.34-55.04-9.74-15.74-2.93-31.48-5.91-47.14-9.27-8.62-1.85-17.34-3.97-23-11.81Z" style="fill: #8a0606; stroke-width: 0px;"/>
  <path d="M106.78,562.5c-.62,20.7-1.3,41.4-1.84,62.11-.46,17.57-.68,35.15-1.13,52.73-.64,25.02-1.38,50.03-2.08,75.05-.53-.35-1.42-.61-1.53-1.06-2.12-8.74-4.95-17.41-5.95-26.29-.87-7.65.33-15.53.68-23.31.27-6.12.83-12.23.93-18.36.41-25.6.44-51.2,1.15-76.79.32-11.71,1.65-23.42,3.04-35.06.46-3.83.97-8.67,6.73-9.02Z" style="fill: #8a0606; stroke-width: 0px;"/>
  <path d="M776.21,756.38c-.03-5.83,0-11.65-.09-17.48-.35-23.94-.62-47.88-1.11-71.81-.54-26.24-1.27-52.48-1.97-78.71-.17-6.3-.55-12.58-.83-18.88.98,1.19,2.56,2.26,2.83,3.59,1.23,6.12,2.56,12.28,2.98,18.49.71,10.74.84,21.51,1.09,32.28.39,17.08.7,34.16,1.01,51.23.07,4.15-.11,8.31.04,12.47.22,6.36.82,12.7.89,19.06.09,7.79,1.12,15.92-.7,23.29-1.54,6.23-2.17,12.22-2.22,18.45-.64,2.67-1.27,5.34-1.91,8.01Z" style="fill: #8f0707; stroke-width: 0px;"/>
  <path d="M778.12,748.37c.05-6.24.68-12.23,2.22-18.45,1.82-7.38.79-15.5.7-23.29-.08-6.36-.67-12.7-.89-19.06-.14-4.15.04-8.31-.04-12.47-.31-17.08-.61-34.16-1.01-51.23-.25-10.76-.37-21.54-1.09-32.28-.41-6.21-1.75-12.37-2.98-18.49-.27-1.33-1.85-2.4-2.83-3.59-.22-4.34-.44-8.68-.65-13.02,1.93,1.76,5.03,3.24,5.55,5.35,1.82,7.32,3.38,14.82,3.87,22.32.84,13.06.8,26.19,1.15,39.28.31,11.27.74,22.53.97,33.8.4,19.58.11,39.2,1.26,58.74.59,10.08.73,19.76-3.13,29.16-.53,1.29-2.05,2.16-3.11,3.23Z" style="fill: #830505; stroke-width: 0px;"/>
  <path d="M118.9,547.39c-1.01-.29-2.02-.58-3.03-.87,1.01.29,2.02.58,3.03.87Z" style="fill: #8f0707; stroke-width: 0px;"/>
  <path d="M763.12,546.51c-1.01.31-2.01.61-3.02.92,1.01-.31,2.01-.61,3.02-.92Z" style="fill: #8f0707; stroke-width: 0px;"/>
  <path d="M771.11,758.35c.68-.28,1.35-.57,2.03-.85-.68.28-1.35.57-2.03.85Z" style="fill: #8a0606; stroke-width: 0px;"/>
  <path d="M761.86,556.72c.42,4.78,1.05,9.2,1.15,13.64.48,20.63.76,41.26,1.23,61.88.63,27.59,1.35,55.19,2.06,82.78.24,9.47.36,18.95.96,28.4.3,4.67-1.02,6.54-5.87,7.59-21.23,4.59-42.21,10.35-63.51,14.49-25.37,4.94-50.88,9.31-76.49,12.72-26.28,3.5-52.7,6.15-79.14,8.03-25.67,1.82-51.43,2.48-77.16,3.12-17.59.44-35.22.52-52.79-.24-24.53-1.06-49.03-2.84-73.52-4.7-17.52-1.33-35.04-2.9-52.48-5.06-20.55-2.54-41.08-5.39-61.49-8.88-27.12-4.64-54.13-9.95-81.15-15.15-9.44-1.82-18.76-4.25-28.18-6.21-3.65-.76-4.71-2.64-4.61-6.28.82-27.75,1.41-55.51,2.16-83.27.57-21.27,1.28-42.54,1.92-63.81.35-11.63.74-23.26.97-34.89.07-3.52.98-4.52,4.81-3.71,32.12,6.78,64.21,13.78,96.49,19.73,21.82,4.02,43.87,7.05,65.94,9.46,29.99,3.27,60.05,6.66,90.16,7.94,40.35,1.71,80.79,1.99,121.19,1.82,21.04-.09,42.14-1.79,63.08-3.96,27.52-2.84,54.98-6.41,82.35-10.51,23.27-3.48,46.43-7.8,69.51-12.43,15.26-3.07,30.28-7.36,45.41-11.07,2.22-.54,4.48-.93,7.02-1.45ZM381.66,665.52c-1.34,1.43-3.33,2.64-3.88,4.32-1.16,3.56-1.38,7.43-2.38,11.06-.44,1.58-1.85,2.89-2.82,4.32-1.2-.92-2.49-1.76-3.59-2.79-4.78-4.47-9.38-9.13-14.34-13.39-1.07-.92-3.35-.42-5.07-.57-.65,0-1.3,0-1.95,0-1.13-.04-2.95-.54-3.28-.05-2.09,3.12-4.74,6.26-5.54,9.77-2.11,9.29-3.94,18.73-4.75,28.21-.44,5.09.89,10.64,6.2,13.77,3.7,2.19,6.68,1.5,8.25-1.98.3-.31.6-.62.9-.92,1.07-.99,2.78-1.83,3.07-3.01.74-3.02.62-6.24,1.28-9.28.35-1.6,1.6-3,2.45-4.49,1.44.92,3.18,1.58,4.26,2.82,4.47,5.09,8.5,10.58,13.15,15.49,5.85,6.17,13.13,4.52,15.74-3.53,1.15-3.55,1.39-7.44,1.77-11.2.9-9.03,2.05-18.07,2.25-27.12.11-4.85-.93-10.13-6.24-12.65-1.89-.9-4.4-2.45-5.5,1.21,0,0,.02-.02.02-.02ZM452.48,662.43c-.65.05-1.3.11-1.94.16-1.89.66-4.25.82-5.59,2.06-5.59,5.19-10.82,10.78-16.33,16.06-1.18,1.13-2.98,1.61-4.49,2.39-.54-1.62-1.25-3.21-1.59-4.87-1.03-5.07-.11-10.89-5.2-14.37-2.58-1.76-5.53-3.4-7.75.7-.63.65-1.27,1.31-1.9,1.96-1.02,2.5-2.95,5.02-2.89,7.49.24,9.58,1.26,19.13,1.7,28.71.51,10.93.63,21.88,1.11,32.82.11,2.61.67,5.28,1.49,7.76,1.97,6,5.87,8.27,11.34,6.95,4.22-1.02,6.78-5.72,6-11.18-.49-3.42-1.18-6.82-1.59-10.26-.12-.99.43-2.07.68-3.1,1.18.33,2.83.27,3.46,1.05,2.18,2.69,3.97,5.7,5.99,8.53,2.69,3.76,5.1,7.82,8.3,11.11,3.62,3.73,9.24,3.95,12.17,1.33,3.46-3.11,3.95-8.18.8-12.69-6.82-9.78-13.74-19.49-20.81-29.09-3.41-4.64-3.2-5.07,1.04-9.02,7.02-6.54,13.67-13.49,20.32-20.4,1.19-1.24,1.98-3.1,2.38-4.8,1.12-4.8-2.43-9.56-6.69-9.29ZM215.93,663.64c-.18-1.98-.11-4.02-.59-5.93-4.33-17.5-15.62-29.84-29.53-40.48-5.87-4.49-15.25.01-16.11,7.57-1.13,9.87-2.54,19.72-3.95,29.55-1.82,12.61-3.88,25.19-5.61,37.81-1.01,7.38-2.1,14.81-2.23,22.23-.14,8.09,7.67,12.92,14.07,8.79,8.88-5.72,18.07-11.32,25.77-18.44,11.72-10.83,15.45-25.88,18.18-41.12ZM491.18,720.74c3.71-.2,6.79.23,9.44-.65,3.94-1.31,5.35.11,6.46,3.6,1.6,5.05,3.06,10.31,5.72,14.8,1.21,2.05,5.21,3.47,7.82,3.29,1.43-.1,2.98-3.99,3.75-6.4.5-1.57-.23-3.58-.58-5.36-3.11-15.49-10.32-29.4-16.83-43.58-2.49-5.42-4.52-11.06-7.22-16.36-.82-1.6-3.42-3.58-4.77-3.3-1.76.37-3.93,2.57-4.48,4.41-4.52,15.27-8.78,30.61-12.92,45.98-1.07,3.98-1.74,8.13-1.99,12.24-.26,4.15,3.69,8.69,7.33,8.8,4.56.14,4.98-3.52,5.74-6.79.85-3.7,1.76-7.38,2.55-10.69ZM611.19,681.06c.01,9.7,1.81,17.71,5.55,24.28,2.94,5.17,6.72,9.66,12.74,11.22,11.79,3.04,28.73-10.78,27.61-23.06-1.21-13.28-6.37-24.4-20.16-29.41-1.71-.62-3.41-2.12-4.44-3.67-4.9-7.37-10.36-7.32-15.31.24-4.23,6.46-6.52,13.41-5.98,20.4ZM554.41,700.34c0-6.91.08-13.19-.04-19.47-.04-2.46-.26-4.99-.85-7.37-.98-3.92-2.9-7.4-7.66-7.05-4.86.36-6.25,4.3-6.35,8.21-.28,10.8-.37,21.63-.01,32.43.16,4.76,1.99,9.54,7.31,10.78,4.11.95,8.49.72,12.76.96,8.54.49,17.13.6,25.62,1.56,3.69.42,7.18,2.09,9.92-1.64,2.31-3.15,1.36-8.4-1.7-11.87-4.76-5.4-11.27-6.08-17.72-6.44-6.78-.38-13.59-.08-21.27-.08ZM701.22,645.51c4.31-1.1,7.49-1.97,10.7-2.74,4.7-1.13,6.16-3.28,5.36-8.06-.6-3.6-4.24-6.03-8.38-4.88-13.08,3.63-26.11,7.5-39.12,11.38-2.86.85-5.84,2.68-4.41,5.94.99,2.27,3.87,4.85,6.18,5.14,3.61.45,7.5-.68,11.17-1.57,7.5-1.81,7.46-1.92,9.42,5.48,3.27,12.33,6.68,24.62,9.78,36.99,1.11,4.43,4.16,5.57,7.79,4.97,3.84-.64,4.01-4.12,3.5-7.16-.59-3.58-1.63-7.09-2.57-10.61-3.07-11.47-6.19-22.94-9.42-34.89ZM320.64,685.02c-.31-.03-.61-.06-.92-.09,0-6.64.2-13.28-.07-19.91-.18-4.43-4.28-8.52-7.95-8.12-4.15.46-5.9,3.51-6.08,7.32-.73,15.55-1.41,31.1-1.91,46.66-.14,4.39.4,9.35,5.68,10.31,5.7,1.03,7.47-3.99,8.12-8.14,1.46-9.28,2.13-18.68,3.12-28.03ZM225.42,705.69c.34,4.38.31,7.57.89,10.63.84,4.36,3.85,7.25,8.13,7.62,4.02.34,7.47-1.72,8.87-5.83,1.05-3.1,1.53-6.39,2.49-9.53.34-1.11,1.16-2.36,2.12-2.86.5-.26,1.92.82,2.68,1.55,5.03,4.79,9.89,9.76,15.01,14.46,4.7,4.32,10.21,4.93,13.38,1.85,4.61-4.49,4.92-10.53.62-15.67-2.87-3.43-5.85-6.78-8.96-9.99-5.35-5.52-5.48-5.54.1-11.01,5.79-5.68,9.18-13.06,8.6-20.55-1.39-17.98-19.15-24.13-31.26-17.09-3.99,2.32-8.5,3.93-12.06,6.76-2.64,2.09-5.46,5.43-5.92,8.54-2.05,14.04-3.28,28.2-4.68,41.13Z" style="fill: #6d0202; stroke-width: 0px;"/>
  <path d="M215.93,663.64c-2.73,15.24-6.46,30.28-18.18,41.12-7.7,7.12-16.89,12.72-25.77,18.44-6.4,4.13-14.21-.7-14.07-8.79.13-7.42,1.21-14.85,2.23-22.23,1.73-12.62,3.8-25.2,5.61-37.81,1.42-9.84,2.82-19.68,3.95-29.55.87-7.56,10.24-12.06,16.11-7.57,13.91,10.64,25.2,22.97,29.53,40.48.47,1.91.4,3.95.59,5.93ZM173.35,702.7c.62.19,1.23.38,1.85.57,15.19-9.51,24.1-23.12,25.36-41.24.24-3.38-1.04-7.38-2.88-10.29-3.18-5-7.31-9.4-11.14-13.97-.74-.88-1.93-1.37-3.34-2.34-3.36,22.92-6.6,45.09-9.85,67.26Z" style="fill: #f51b1b; stroke-width: 0px;"/>
  <path d="M450.54,662.59c.65-.05,1.3-.11,1.94-.16,5.02,4.3,6.38,8.84,3.07,12.33-6.76,7.11-13.77,13.98-20.85,20.77-2.17,2.08-4.9,3.59-6.9,5.02,9.13,12.4,17.78,24.1,26.37,35.84,2.62,3.58,2.46,8.44-.48,10.13-3.78,2.17-7.2.78-9.65-2.4-2.83-3.67-5.26-7.65-7.86-11.5-4.48-6.62-8.97-13.23-13.46-19.84l-1.67.68c.91,9.34,1.68,18.7,2.81,28.01.43,3.57-.55,6-3.95,6.86-3.57.89-6.84-.06-8.09-3.89-.86-2.63-1.16-5.52-1.28-8.31-.5-11.11-.79-22.23-1.24-33.35-.49-12.09-1.07-24.17-1.61-36.26.63-.65,1.27-1.31,1.9-1.96,6.9-.42,9.48,1.88,9.89,9.01.31,5.34.5,10.69.74,16.03.57.27,1.14.53,1.71.8,9.53-9.27,19.07-18.54,28.6-27.8Z" style="fill: #f51b1b; stroke-width: 0px;"/>
  <path d="M491.18,720.74c-.79,3.3-1.69,6.99-2.55,10.69-.75,3.27-1.18,6.93-5.74,6.79-3.64-.11-7.59-4.65-7.33-8.8.26-4.11.92-8.26,1.99-12.24,4.14-15.38,8.4-30.72,12.92-45.98.54-1.84,2.71-4.04,4.48-4.41,1.35-.28,3.96,1.7,4.77,3.3,2.7,5.3,4.73,10.95,7.22,16.36,6.51,14.18,13.72,28.09,16.83,43.58.36,1.78,1.08,3.79.58,5.36-.76,2.41-2.31,6.3-3.75,6.4-2.61.18-6.6-1.24-7.82-3.29-2.66-4.5-4.12-9.75-5.72-14.8-1.11-3.49-2.52-4.91-6.46-3.6-2.65.88-5.74.45-9.44.65Z" style="fill: #f41b1b; stroke-width: 0px;"/>
  <path d="M349.41,717.29c-.3.31-.6.62-.9.92-6.86,2.2-12.17-1.24-11.75-8.5.52-9.01,1.76-18.02,3.32-26.91.94-5.39,1.83-11.25,7.55-14.31.65,0,1.3,0,1.95,0,11.24,5.26,17.16,16.08,25.24,25.77,2.49-10.46,4.67-19.59,6.84-28.73,0,0-.02.02-.02.02,5.91-1.24,8.3,2.98,8.64,7.22.56,6.96-.11,14.05-.62,21.06-.49,6.74-1,13.53-2.28,20.15-1.34,6.96-7.11,8.51-12.09,3.53-2.56-2.56-4.67-5.58-6.92-8.43-4.57-5.79-9.1-11.6-14.58-18.6-1.63,10.01-3.01,18.42-4.38,26.83Z" style="fill: #f51b1b; stroke-width: 0px;"/>
  <path d="M611.19,681.06c-.54-6.99,1.75-13.95,5.98-20.4,4.95-7.55,10.41-7.61,15.31-.24,1.03,1.55,2.72,3.05,4.44,3.67,13.79,5.02,18.95,16.13,20.16,29.41,1.12,12.27-15.82,26.1-27.61,23.06-6.02-1.55-9.8-6.04-12.74-11.22-3.73-6.57-5.53-14.58-5.55-24.28ZM624.83,682.22c1,5.14,1.45,9.28,2.65,13.19,1.77,5.76,6.96,6.61,10.98,2.07,6.12-6.89,5.08-14.74-2.92-19.71-1.91-1.19-5.17-2.42-6.63-1.59-2.04,1.17-2.99,4.27-4.08,6.03Z" style="fill: #f51b1b; stroke-width: 0px;"/>
  <path d="M554.41,700.34c7.68,0,14.49-.29,21.27.08,6.45.36,12.96,1.04,17.72,6.44,3.06,3.48,4.01,8.73,1.7,11.87-2.74,3.73-6.23,2.06-9.92,1.64-8.49-.96-17.07-1.07-25.62-1.56-4.26-.24-8.65-.01-12.76-.96-5.33-1.23-7.15-6.02-7.31-10.78-.36-10.8-.27-21.62.01-32.43.1-3.91,1.49-7.85,6.35-8.21,4.76-.35,6.68,3.13,7.66,7.05.59,2.38.81,4.9.85,7.37.11,6.28.04,12.56.04,19.47Z" style="fill: #f41b1b; stroke-width: 0px;"/>
  <path d="M701.22,645.51c3.23,11.95,6.34,23.41,9.42,34.89.94,3.52,1.98,7.03,2.57,10.61.5,3.04.33,6.52-3.5,7.16-3.64.61-6.68-.53-7.79-4.97-3.1-12.37-6.51-24.66-9.78-36.99-1.96-7.4-1.92-7.29-9.42-5.48-3.67.89-7.56,2.02-11.17,1.57-2.31-.29-5.19-2.87-6.18-5.14-1.43-3.27,1.56-5.09,4.41-5.94,13.02-3.88,26.04-7.75,39.12-11.38,4.14-1.15,7.78,1.28,8.38,4.88.8,4.78-.65,6.93-5.36,8.06-3.21.77-6.4,1.63-10.7,2.74Z" style="fill: #f41b1b; stroke-width: 0px;"/>
  <path d="M320.64,685.02c-.99,9.35-1.66,18.75-3.12,28.03-.65,4.15-2.42,9.17-8.12,8.14-5.29-.96-5.83-5.91-5.68-10.31.5-15.56,1.18-31.11,1.91-46.66.18-3.82,1.93-6.86,6.08-7.32,3.66-.41,7.77,3.69,7.95,8.12.27,6.63.07,13.27.07,19.91.31.03.61.06.92.09Z" style="fill: #f41b1b; stroke-width: 0px;"/>
  <path d="M407.69,666.51c.54,12.09,1.12,24.17,1.61,36.26.45,11.12.74,22.24,1.24,33.35.13,2.79.43,5.68,1.28,8.31,1.24,3.82,4.52,4.78,8.09,3.89,3.41-.85,4.38-3.29,3.95-6.86-1.13-9.32-1.9-18.67-2.81-28.01l1.67-.68c4.49,6.61,8.97,13.23,13.46,19.84,2.61,3.84,5.04,7.82,7.86,11.5,2.45,3.18,5.87,4.57,9.65,2.4,2.94-1.69,3.1-6.55.48-10.13-8.58-11.75-17.23-23.44-26.37-35.84,2-1.43,4.73-2.94,6.9-5.02,7.08-6.79,14.09-13.66,20.85-20.77,3.31-3.49,1.95-8.02-3.07-12.33,4.26-.28,7.81,4.49,6.69,9.29-.4,1.71-1.2,3.57-2.38,4.8-6.65,6.92-13.3,13.86-20.32,20.4-4.24,3.95-4.45,4.38-1.04,9.02,7.07,9.6,13.98,19.32,20.81,29.09,3.15,4.51,2.66,9.58-.8,12.69-2.93,2.63-8.55,2.4-12.17-1.33-3.19-3.29-5.6-7.34-8.3-11.11-2.02-2.83-3.81-5.84-5.99-8.53-.63-.77-2.28-.72-3.46-1.05-.24,1.04-.8,2.11-.68,3.1.41,3.43,1.1,6.83,1.59,10.26.78,5.46-1.78,10.16-6,11.18-5.47,1.32-9.37-.95-11.34-6.95-.82-2.49-1.38-5.15-1.49-7.76-.47-10.93-.6-21.88-1.11-32.82-.44-9.58-1.46-19.13-1.7-28.71-.06-2.47,1.87-4.99,2.89-7.49Z" style="fill: #8b0101; stroke-width: 0px;"/>
  <path d="M225.42,705.69c1.4-12.93,2.63-27.09,4.68-41.13.45-3.12,3.28-6.45,5.92-8.54,3.57-2.83,8.07-4.44,12.06-6.76,12.11-7.03,29.87-.88,31.26,17.09.58,7.49-2.81,14.87-8.6,20.55-5.57,5.47-5.44,5.49-.1,11.01,3.11,3.21,6.09,6.56,8.96,9.99,4.3,5.14,3.99,11.18-.62,15.67-3.17,3.08-8.68,2.47-13.38-1.85-5.11-4.7-9.98-9.67-15.01-14.46-.76-.73-2.18-1.81-2.68-1.55-.96.5-1.78,1.75-2.12,2.86-.96,3.14-1.44,6.43-2.49,9.53-1.4,4.11-4.84,6.17-8.87,5.83-4.27-.36-7.29-3.26-8.13-7.62-.59-3.07-.55-6.25-.89-10.63ZM261.31,691.94c7.03-6.26,13.31-11.47,15.04-20.47,2.13-11.02-3.5-19.88-14.44-22.17-7.13-1.49-12.53,1.46-17.87,5.34-1.43,1.04-3.03,2.55-4.58,2.58-4.23.09-6.25,2.42-6.65,6.03-1.79,16.29-3.55,32.59-4.86,48.93-.42,5.26,3.69,10.3,7.23,9.94,5.12-.53,6.28-4.83,7.37-8.9.29-1.1.12-2.32.22-3.48.47-5.74.95-11.48,1.51-18.1,5.69,12.51,14.02,21.51,24.08,29.19,2.94,2.24,5.5,3.9,8.82,1.54,3.2-2.28,4.15-7.23,1.92-10.7-1.78-2.76-4.07-5.23-6.3-7.67-3.68-4.01-7.49-7.89-11.48-12.07Z" style="fill: #8b0101; stroke-width: 0px;"/>
  <path d="M349.41,717.29c1.37-8.41,2.75-16.83,4.38-26.83,5.48,7,10.01,12.82,14.58,18.6,2.26,2.86,4.36,5.87,6.92,8.43,4.99,4.99,10.75,3.43,12.09-3.53,1.28-6.62,1.79-13.41,2.28-20.15.51-7.01,1.17-14.1.62-21.06-.34-4.23-2.73-8.46-8.64-7.22,1.1-3.65,3.61-2.1,5.5-1.21,5.3,2.51,6.34,7.79,6.24,12.65-.2,9.05-1.36,18.09-2.25,27.12-.37,3.76-.61,7.64-1.77,11.2-2.61,8.05-9.88,9.7-15.74,3.53-4.65-4.91-8.68-10.4-13.15-15.49-1.08-1.23-2.82-1.89-4.26-2.82-.84,1.49-2.1,2.89-2.45,4.49-.66,3.05-.54,6.27-1.28,9.28-.29,1.18-2.01,2.02-3.07,3.01Z" style="fill: #8b0101; stroke-width: 0px;"/>
  <path d="M450.54,662.59c-9.53,9.27-19.07,18.54-28.6,27.8-.57-.27-1.14-.53-1.71-.8-.24-5.34-.43-10.69-.74-16.03-.41-7.13-2.99-9.43-9.89-9.01,2.23-4.1,5.18-2.46,7.75-.7,5.09,3.48,4.17,9.31,5.2,14.37.34,1.66,1.05,3.25,1.59,4.87,1.51-.78,3.31-1.26,4.49-2.39,5.51-5.29,10.74-10.87,16.33-16.06,1.34-1.25,3.7-1.4,5.59-2.06Z" style="fill: #8b0101; stroke-width: 0px;"/>
  <path d="M381.66,665.52c-2.18,9.13-4.35,18.27-6.84,28.73-8.08-9.68-14-20.5-25.24-25.77,1.72.15,4.01-.35,5.07.57,4.96,4.25,9.56,8.92,14.34,13.39,1.1,1.03,2.39,1.86,3.59,2.79.97-1.43,2.39-2.74,2.82-4.32,1-3.63,1.22-7.49,2.38-11.06.55-1.68,2.54-2.9,3.88-4.32Z" style="fill: #8b0101; stroke-width: 0px;"/>
  <path d="M347.63,668.49c-5.72,3.06-6.61,8.92-7.55,14.31-1.56,8.9-2.8,17.9-3.32,26.91-.42,7.27,4.89,10.7,11.75,8.5-1.57,3.47-4.55,4.16-8.25,1.98-5.31-3.13-6.63-8.68-6.2-13.77.81-9.48,2.64-18.92,4.75-28.21.8-3.51,3.45-6.65,5.54-9.77.33-.49,2.15,0,3.28.05Z" style="fill: #8b0101; stroke-width: 0px;"/>
  <path d="M173.35,702.7c3.25-22.17,6.49-44.34,9.85-67.26,1.41.96,2.6,1.46,3.34,2.34,3.83,4.57,7.96,8.97,11.14,13.97,1.85,2.91,3.12,6.9,2.88,10.29-1.27,18.12-10.17,31.73-25.36,41.24-.62-.19-1.23-.38-1.85-.57ZM185.99,642.31c-.83,1.84-1.85,3.24-2.08,4.77-2.36,15.32-4.61,30.66-6.82,46.01-.39,2.7,1.03,3.89,3.54,2.72,1.61-.75,3.19-1.91,4.34-3.26,6-7.02,10.28-14.93,12.3-24.05,2.13-9.56-2.05-20.04-11.29-26.2Z" style="fill: #8b0101; stroke-width: 0px;"/>
  <path d="M624.83,682.22c1.1-1.76,2.04-4.86,4.08-6.03,1.47-.84,4.72.4,6.63,1.59,7.99,4.96,9.04,12.81,2.92,19.71-4.03,4.53-9.21,3.68-10.98-2.07-1.2-3.91-1.65-8.05-2.65-13.19ZM640.93,687.04c-2.13-2.37-4.38-5.26-7.09-7.63-.77-.67-3.2-.32-4.28.42-3.18,2.18-2.51,5.35-1.49,8.49.35,1.08,0,2.47.55,3.38,1.18,1.99,2.57,5.07,4.18,5.27,1.77.22,4.18-2,5.75-3.69,1.13-1.21,1.32-3.29,2.39-6.24Z" style="fill: #8f0707; stroke-width: 0px;"/>
  <path d="M261.31,691.94c3.99,4.18,7.81,8.06,11.48,12.07,2.24,2.44,4.52,4.9,6.3,7.67,2.23,3.46,1.28,8.42-1.92,10.7-3.32,2.36-5.88.71-8.82-1.54-10.06-7.68-18.39-16.68-24.08-29.19-.55,6.63-1.04,12.37-1.51,18.1-.09,1.16.08,2.38-.22,3.48-1.09,4.07-2.25,8.37-7.37,8.9-3.54.36-7.65-4.68-7.23-9.94,1.31-16.33,3.07-32.63,4.86-48.93.4-3.61,2.43-5.94,6.65-6.03,1.55-.03,3.15-1.54,4.58-2.58,5.34-3.88,10.74-6.83,17.87-5.34,10.94,2.29,16.57,11.14,14.44,22.17-1.74,8.99-8.01,14.21-15.04,20.47ZM253.68,677.35c1.68-.64,3.35-1.28,5.03-1.92,4.08-2.15,6.89-6.59,5.29-8.79-2.71-3.74-6.25-1.88-9.52-.86-.67.21-1.13,1.11-1.68,1.7-1.04,1.32-2.07,2.64-3.11,3.95-1.44,2.59-2.88,5.18-4.94,8.88,4.1-1.36,6.51-2.15,8.91-2.95Z" style="fill: #f51b1b; stroke-width: 0px;"/>
  <path d="M185.99,642.31c9.24,6.15,13.41,16.63,11.29,26.2-2.03,9.12-6.3,17.03-12.3,24.05-1.15,1.35-2.73,2.51-4.34,3.26-2.52,1.17-3.93-.02-3.54-2.72,2.21-15.35,4.46-30.68,6.82-46.01.24-1.53,1.26-2.94,2.08-4.77Z" style="fill: #6d0202; stroke-width: 0px;"/>
  <path d="M640.93,687.04c-1.06,2.95-1.26,5.03-2.39,6.24-1.57,1.69-3.98,3.91-5.75,3.69-1.61-.2-2.99-3.28-4.18-5.27-.54-.91-.2-2.3-.55-3.38-1.02-3.14-1.69-6.31,1.49-8.49,1.08-.74,3.51-1.09,4.28-.42,2.71,2.37,4.96,5.26,7.09,7.63Z" style="fill: #6d0202; stroke-width: 0px;"/>
  <path d="M258.71,675.42c-1.68.64-3.35,1.28-5.03,1.92-2.52-1.17-4.76-2.54-3.98-5.93,1.04-1.32,2.07-2.64,3.1-3.95.65-.06,1.3-.2,1.94-.18,2.12.08,4.24.22,6.36.33-.62,1.98-1.25,3.97-1.87,5.95-.19.61-.36,1.24-.53,1.86Z" style="fill: #830505; stroke-width: 0px;"/>
  <path d="M258.71,675.42c.18-.62.34-1.24.53-1.86.62-1.99,1.25-3.97,1.87-5.95-2.12-.12-4.24-.25-6.36-.33-.65-.02-1.3.12-1.94.18.56-.58,1.01-1.49,1.68-1.7,3.27-1.02,6.81-2.87,9.52.86,1.6,2.2-1.22,6.64-5.29,8.79Z" style="fill: #8f0707; stroke-width: 0px;"/>
  <path d="M249.7,671.42c-.79,3.39,1.46,4.76,3.98,5.93-2.41.8-4.81,1.59-8.91,2.95,2.06-3.7,3.5-6.29,4.94-8.88Z" style="fill: #8f0707; stroke-width: 0px;"/>
</svg>