<?xml version="1.0" encoding="UTF-8"?>
<svg id="Camada_1" data-name="Camada 1" xmlns="http://www.w3.org/2000/svg" viewBox="0 0 640 1000">
  <defs>
    <style>
      .cls-1 {
        fill: #010101;
        stroke-width: 0px;
      }
    </style>
  </defs>
  <g id="SVGRepo_iconCarrier" data-name="SVGRepo iconCarrier">
    <path class="cls-1" d="M556.65,260.33l-161.2-92.87-26.03-96.78c-4.01-14.9-19.35-23.74-34.25-19.73L-258.57,210.63c-14.9,4.01-23.74,19.35-19.73,34.25L-60.56,1054.53c4.01,14.9,19.35,23.74,34.25,19.73l593.75-159.68c14.9-4.01,23.74-19.35,19.73-34.25l-113.12-420.64,92.87-161.2c7.72-13.36,3.12-30.47-10.26-38.16ZM110.14,621.63l152.47,87.84-134.79,57.72-17.67-145.56ZM278.82,686.56l-157.05-90.48,163.62-284.01,157.05,90.48-163.62,284.01ZM456.39,378.34l-157.05-90.48,48.15-83.53h0l157.05,90.48-48.15,83.53ZM-13.84,1013.02L-217.06,257.35,322.71,112.19l14.52,53.98-78.92,136.99-323.86,87.1,7.26,26.99,296.87-79.84-39.46,68.49-242.9,65.32,7.26,26.99,215.91-58.06-39.46,68.49-161.93,43.55,7.26,26.99,134.94-36.29-34.8,60.41c-1.36,2.36-2.26,4.95-2.88,7.6L-.24,633.14l7.26,26.99,77.11-20.74,6.8,56.05-69.39,18.66,7.26,26.99,65.55-17.63,6.8,56.05-57.84,15.55,7.26,26.99,53.98-14.52,173.1-74.13c5.55-2.39,10.2-6.51,13.22-11.75l133.46-231.64,101.61,377.84L-13.84,1013.02Z"/>
  </g>
</svg>