<?xml version="1.0" encoding="UTF-8"?>
<svg id="Camada_1" data-name="Camada 1" xmlns="http://www.w3.org/2000/svg" viewBox="0 0 800 800">
  <g id="SVGRepo_iconCarrier" data-name="SVGRepo iconCarrier">
    <path d="M743.57,426.62l-99.29-144.24,17.12-92.76c2.64-14.28-6.81-28.01-21.09-30.64L71.2,53.92c-14.28-2.64-28.01,6.81-30.64,21.09L-102.69,851.07c-2.64,14.28,6.81,28.01,21.09,30.64l569.11,105.05c14.28,2.64,28.01-6.81,30.64-21.09l74.42-403.19,144.24-99.29c11.98-8.22,15-24.62,6.75-36.58ZM217.8,552.53l93.91,136.42-137.9-5.61,44-130.82ZM334.77,676.07l-96.73-140.53,254.13-174.93,96.73,140.53-254.13,174.93ZM610.56,486.23l-96.73-140.53,74.77-51.44h0l96.73,140.53-74.77,51.44ZM-46.18,834.75L87.52,110.44l517.37,95.5-9.55,51.74-122.57,84.37-310.42-57.3-4.78,25.87,284.55,52.53-61.29,42.19-232.82-42.98-4.78,25.87,206.95,38.2-61.29,42.19-155.21-28.65-4.78,25.87,129.34,23.88-54.06,37.21c-2.11,1.46-3.92,3.29-5.52,5.29l-79.31-14.64-4.78,25.87,73.91,13.64-16.95,50.37-66.51-12.28-4.78,25.87,62.83,11.6-16.95,50.37-55.44-10.23-4.78,25.87,51.74,9.55,177.09,7.2c5.68.22,11.3-1.39,15.99-4.62l207.27-142.68-66.85,362.16L-46.18,834.75Z" style="fill: #010101; stroke-width: 0px;"/>
  </g>
</svg>