<?xml version="1.0" encoding="UTF-8"?>
<svg id="Camada_2" data-name="Camada 2" xmlns="http://www.w3.org/2000/svg" viewBox="0 0 800 800">
  <path d="M538.95,1005.98c0-23.83-.26-47.67.07-71.49.39-27.61,1.22-55.22,2.03-82.83.27-9.18.73-18.37,1.67-27.5,1.45-14.11-5.42-24.44-14.19-34.31-15.39-17.34-30.47-34.96-45.76-52.4-7.05-8.05-13.6-16.75-21.72-23.56-4.24-3.56-12.41-6.4-16.95-4.67-6.01,2.28-8.03,8.88-5.61,17.24,5.64,19.42,9.02,39.49,13.81,59.18,4.53,18.6,9.91,36.99,14.52,55.56,4.3,17.28,7.91,34.73,12.13,52.04,6.91,28.38,14.99,56.52,20.79,85.12,3.97,19.58,12.39,38.77,7.51,59.7-4.6,19.74-14.74,34.93-32.46,45.25-16.43,9.57-34.29,13.18-52.1,8.15-21.75-6.13-40.94-18.07-47.68-41.42-6.58-22.83-10.73-46.35-16.07-69.54-5.97-25.91-12.29-51.74-18.09-77.68-3.96-17.73-7.07-35.64-10.97-53.38-5.89-26.81-12.55-53.45-18.1-80.32-5.46-26.43-10.3-53-14.77-79.62-6.87-40.91,5.96-77.72,24.17-113.5,7.85-15.42,15.21-31.25,20.92-47.54,6.59-18.83-3.29-33.69-15.51-46.89-37.55-40.55-75.71-80.56-112.61-121.7-8.6-9.59-13.64-22.57-19.42-34.42-9.7-19.91-18.79-40.11-27.94-60.28-10.9-24.03-21.84-48.04-32.28-72.27-8.84-20.51-4.8-40.19,8.48-56.9,22.29-28.06,69.43-31.15,93.97-1.85,6.51,7.77,10.88,17.6,15.05,27.01,9.95,22.47,18.94,45.36,28.81,67.87,9.17,20.91,16.66,43.09,29.15,61.89,13.5,20.32,31.39,37.89,48.63,55.42,3.91,3.98,13.07,4.17,19.69,3.83,15.99-.83,31.9-3.02,47.85-4.65,15.96-1.63,32.12-2.25,47.78-5.37,6.07-1.21,12.65-7.03,16.19-12.54,17.81-27.72,34.43-56.2,51.98-84.09,14.73-23.42,30.23-46.36,45.27-69.59,16.41-25.34,32.92-50.62,48.94-76.21,9.93-15.85,35.97-29.13,54.26-26.51,23.64,3.39,40.57,14.46,49.63,38.07,9.12,23.77-.43,42.7-11.93,61.53-21.46,35.14-43.35,70.02-65.29,104.86-17.81,28.28-36.21,56.2-53.89,84.56-15.94,25.58-32.82,50.76-46.16,77.67-6.42,12.96-6.13,29.44-7.96,44.43-1.92,15.75-2.96,31.62-3.99,47.46-1.42,21.92-3,43.85-3.32,65.79-.08,5.45,3.35,11.81,6.97,16.3,24.16,29.99,48.91,59.5,73.25,89.35,10.11,12.4,19.88,25.08,29.44,37.91,12.83,17.22,14.77,37.58,15.02,58.01.52,42.33.46,84.67.57,127,.07,23.73-1.16,47.53.38,71.16,1.3,19.9-2.4,37.5-15.15,52.64-15.61,18.52-35.6,27.65-60.14,24.8-32.14-3.73-51.34-22.57-60.12-52.83-1.26-4.36-.67-9.26-.94-13.9.73,0,1.46-.02,2.19-.03ZM324.43,670.7c.53,5.3.66,10.68,1.66,15.9,3.06,15.99,6.53,31.9,9.71,47.87,3.89,19.54,7.39,39.15,11.52,58.63,4.49,21.17,9.49,42.24,14.32,63.35,4.05,17.72,8.39,35.38,12.22,53.15,5.53,25.66,10.63,51.42,16.1,77.1,2.74,12.87,6.39,25.57,8.68,38.52,1.76,9.97,4.17,18.92,11.98,26.29,16.67,15.74,40.75,17.5,58.46-1.82,13.66-14.91,9.6-31.7,5.54-48.28-8.33-34.09-17.53-67.96-25.77-102.07-8.41-34.8-16-69.79-24.17-104.65-2.17-9.27-5.56-18.26-7.62-27.56-3.61-16.26-9.79-32.76-9.22-48.96,1.23-34.62,40.05-50.47,65.33-31.98,10.15,7.43,18.77,17.15,27.28,26.56,15.27,16.88,30.28,34.02,44.74,51.59,12.98,15.76,28.59,30.49,27.02,53.67-.33,4.92-1.01,9.83-1.08,14.75-.43,27.19-.34,54.39-1.18,81.57-.88,28.47-3.25,56.91-3.66,85.39-.15,10.88.38,21.87,9.95,31.33,11.31,11.18,30.63,15.38,37.81,12.58,19.93-7.76,31.12-22.87,30.65-40.67-.76-28.57-1.67-57.14-1.93-85.72-.37-41,.13-82.01-.54-123.01-.16-9.74-3.02-19.53-5.41-29.11-5.29-21.24-22.79-34.29-35.44-50.41-21.54-27.47-45.24-53.25-66.82-80.7-7.65-9.73-15.92-22.01-16.61-33.55-1.43-24.12,1.86-48.54,3.46-72.82,1.44-21.89,2.5-43.84,5.12-65.59,1.58-13.11,3.24-27.31,9.37-38.56,15.28-28.05,33.07-54.74,49.99-81.89,15.17-24.35,30.61-48.54,45.79-72.89,15.79-25.32,31.37-50.78,47.13-76.11,10.51-16.9,21.29-33.63,31.75-50.55,6.18-9.99,4.31-24.12-3.78-31.45-13.22-11.98-26.16-14.81-36.12-4.81-10.37,10.41-18.84,22.95-26.93,35.35-18.43,28.25-36.06,57.02-54.13,85.51-24.35,38.4-48.39,76.99-73.45,114.92-7.11,10.76-14.95,22.63-29.18,25.43-14.67,2.89-29.55,4.77-44.4,6.65-17.33,2.2-34.72,3.91-52.09,5.84-16.71,1.85-33.79,3.93-47.99-7.59-7.9-6.41-14.3-14.72-21.13-22.39-11.58-13.03-24.92-25.03-33.95-39.66-11.9-19.26-20.71-40.49-30.18-61.17-12.27-26.79-24.48-53.64-35.61-80.91-8.28-20.31-20.38-27.97-41.39-23.42-10.22,2.21-23.6,17.27-19.51,30.04,5.15,16.13,11.02,32.12,17.92,47.58,10.67,23.91,22.47,47.32,33.82,70.92,7.12,14.82,12.28,31.12,21.92,44.07,14.19,19.05,31.52,35.76,47.64,53.35,24.55,26.79,49.37,53.33,73.74,80.28,16.2,17.92,22.53,39.63,15.52,62.47-6.41,20.89-15.96,41-25.77,60.64-12.2,24.41-20.97,49.37-21.12,77.03Z" style="fill: #000; stroke-width: 0px;"/>
  <path d="M51.37,548.17c10.55,21.57,20.77,42.33,30.86,63.14,4.11,8.47,9.31,16.72,11.67,25.69,7.93,30.23-16.33,64.77-43.35,73.2-19.28,6.02-36.32,5.86-50.45-9.91-11.59-12.93-14.03-27.64-8.62-44.61,8.55-26.84,27.4-42.38,54.24-51.98-4.24-8.44-8-16.36-12.15-24.06-6.09-11.29-12.97-22.18-18.62-33.68-7.87-16-15.17-32.3-22.21-48.69-3.87-9,.44-22.39,8.79-26.89,15.74-8.49,31.89-16.2,47.78-24.42,14.26-7.37,28.3-15.17,42.62-22.42,11.2-5.67,22.44-11.39,34.11-15.95,9.32-3.64,23.25,4.97,28.67,15.72,17.19,34.06,34.42,68.1,51.99,101.96,6.7,12.91,15.71,24.76,21.26,38.09,5.55,13.32,5.66,27.75.03,41.83-7.54,18.85-20.72,33.01-38.61,41.14-18.98,8.64-43.84,7.11-56.95-15.08-12.58-21.29-5.65-46.74,7.96-62.7,10.85-12.72,22-24.72,41.84-25.26-2.72-6.46-4.55-11.41-6.87-16.14-4.22-8.62-9.16-16.9-12.97-25.69-3.38-7.8-7.71-9.02-14.95-5.02-27.99,15.47-56.11,30.72-84.22,45.98-4.01,2.18-8.21,4-11.84,5.75ZM128.42,437.77c-36,18.57-71.08,36.67-106.03,54.7,4.94,10.07,9.61,19.61,14.87,30.32,35.46-19,70.55-37.79,105.51-56.52-4.68-9.31-9.14-18.16-14.35-28.51ZM19.84,670.68c-.54,10.98,2.51,14.39,13.56,13.4,21.78-1.93,33.67-22.18,32.06-40.48-.35-3.92-8.24-10.34-12.46-10.18-16.4.6-32.28,19.58-33.16,37.26ZM168.51,621.71c14.04-.11,35.72-23.4,33.86-37.41-.99-7.47-4.27-13.93-14.44-13.27-11.78.76-32.99,21.19-33.28,33.19-.26,10.92,5.01,17.57,13.86,17.5Z" style="fill: #000; stroke-width: 0px;"/>
  <path d="M681.3,420.61c6.78,12.52,12.55,22.98,18.13,33.54,18.99,35.96,37.89,71.97,56.9,107.92,4.71,8.92,12.06,17.16,14.15,26.61,5.94,26.81-12.12,57.13-35.37,67.95-14.61,6.8-28.81,11.35-45.03,4.1-20.35-9.11-28.23-32.72-22.64-52.72,6.58-23.57,20.34-40.27,43.56-48.87,2.56-.95,4.74-2.91,8.32-5.17-10.67-19.43-21.18-38.36-31.5-57.39-7.77-14.35-15.42-28.77-22.9-43.27-6.86-13.3-13.57-26.68-20.03-40.18-4.16-8.69.03-18.42,9.68-19.18,16.49-1.31,33.55-2.94,49.64-.17,28.18,4.85,53.47,17.29,71.9,40.3,7.76,9.69,14.73,20.13,21.08,30.82,4.82,8.1,1.77,17.54-6.45,21.93-7.94,4.23-14.17-.47-18.58-6.28-6.02-7.93-10.36-17.14-16.39-25.07-17.81-23.4-42.68-32.79-74.46-34.84ZM707.65,634.39c20.98-.53,33.39-19.7,34.99-37.98.56-6.37-8.64-13.11-14.82-11.81-15.69,3.29-25.7,12.96-30.88,27.79-4.32,12.35.75,22.48,10.71,22Z" style="fill: #000; stroke-width: 0px;"/>
  <path d="M416.91,307.96c-52.84,1.86-91.04-36.62-92.09-83.71-1.2-53.78,36.28-88.14,85.53-90.61,49-2.45,91.8,36.03,92.3,86.48.44,43.39-37.03,87.1-85.74,87.83ZM414.24,163.38c-33.43-.61-60.62,22.2-59.78,60.43.66,29.73,24.2,54.62,59.34,55.3,32.01.62,57.93-23.88,59.02-59.36.84-27.39-24.21-56.9-58.58-56.37Z" style="fill: #000; stroke-width: 0px;"/>
</svg>