<?xml version="1.0" encoding="UTF-8"?>
<svg id="Camada_1" data-name="Camada 1" xmlns="http://www.w3.org/2000/svg" viewBox="0 0 640 1000">
  <defs>
    <style>
      .cls-1 {
        fill: #000;
        stroke-width: 0px;
      }
    </style>
  </defs>
  <path class="cls-1" d="M168.96,709.15c-.75-31.55,10.37-60.35,19.8-89.45,5.2-16.05,12.08-31.59,16.53-47.82,4.57-16.66,1.04-31.44-12.9-43.85-45.16-40.17-90.48-80.22-134.11-122.02-14.06-13.47-23.8-31.77-34.23-48.66-15.09-24.46-29.34-49.46-43.32-74.57-11.35-20.39-24.72-40.32-31.91-62.19-9.87-30.04,6.8-54.31,29.45-68.1,26.42-16.08,63.1-10.5,79.32,12.21,14.59,20.43,26.28,42.97,38.82,64.82,16.32,28.42,31.1,57.81,48.78,85.34,8.61,13.41,22.28,23.59,33.74,35.15,1.67,1.69,3.96,2.76,5.66,4.42,30.79,29.94,19.83,26.02,65.02,18.13,22.77-3.98,45.23-9.77,67.98-13.92,12.75-2.33,20.94-8.79,26.73-20.29,38.18-75.81,76.61-151.5,115.23-227.09,6.22-12.18,13.32-23.99,20.81-35.45,20.18-30.92,61.41-31.77,83.3-17.01,26.96,18.19,36.95,50.19,20.7,82.4-38.99,77.29-78.45,154.34-117.28,231.71-12.8,25.5-24.81,51.45-36,77.7-3.46,8.13-4.2,17.92-4.15,26.95.25,43.78.53,87.59,2.41,131.33.41,9.6,5.2,20.97,11.76,28,26,27.88,53.7,54.16,80.35,81.44,14.68,15.03,29.1,30.39,42.63,46.45,14.8,17.56,17.06,39.64,19.35,61.45,4.27,40.64,8.87,81.25,12.79,121.93,3.23,33.54,6.06,67.14,8.36,100.76,1.96,28.74-19.89,56.72-44.85,65.59-33.89,12.04-64.37,3.14-84.02-21.44-10.73-13.43-15.08-28.32-16.07-44.73-3.76-62.38-7.52-124.76-10.96-187.16-.86-15.61-10.04-25.64-20.54-35.51-20.13-18.92-39.82-38.31-59.84-57.34-6.45-6.13-12.94-12.42-20.29-17.34-3.32-2.22-10.5-3.29-12.87-1.28-3.85,3.26-8.14,10.26-7.07,14.32,5.45,20.63,12.27,40.91,19.15,61.14,13.52,39.72,27.39,79.33,41.14,118.98,13.64,39.34,27.12,78.74,41.01,118,10.56,29.85-4.1,68.36-32.08,84-39.9,22.31-70.19,11.32-93.36-12.69-11.78-12.2-16.92-31.74-22.53-48.8-23-69.83-45.24-139.92-67.35-210.04-13.58-43.08-26.74-86.29-39.33-129.67-3.34-11.51-3.89-23.82-5.72-35.76ZM200.79,710.44c1.8,10.68,2.51,21.67,5.59,31.97,9.68,32.43,20.34,64.57,30.46,96.87,15.98,50.99,31.72,102.05,47.79,153.01,10.8,34.22,22.56,68.15,32.84,102.52,7.28,24.34,28.44,36.59,54.87,28.87,16.41-4.79,34.06-25.74,26.14-50.09-10.02-30.82-19.87-61.69-30.38-92.34-23.44-68.33-47.33-136.52-70.86-204.82-6.28-18.22.2-40.75,13.72-49.83,20.02-13.44,41.91-13.93,57.82-.12,13.12,11.38,25.26,23.89,37.88,35.84,16.51,15.64,32.97,31.34,49.65,46.8,12.27,11.36,21.12,24.11,22.21,41.62,4.09,65.99,8.71,131.94,12.8,197.93,1.43,23.05,18.85,40.44,42.98,40.46,14.53.01,36.59-12.82,38.51-36.83.88-11.04-.14-22.34-1.28-33.41-6.13-59.41-13.27-118.73-18.61-178.22-2.89-32.14-8.86-61.48-36.15-83.08-12.91-10.22-23.23-23.71-34.81-35.63-20.93-21.53-40.85-44.19-63.25-64.08-15.83-14.05-21.36-30.17-21.55-50-.38-38.45-1.08-76.89-1.87-115.33-.55-26.81,1.43-52.76,15.17-77.04,13.12-23.16,24.51-47.31,36.51-71.1,17.07-33.82,34.02-67.7,51-101.56,20.29-40.45,40.66-80.85,60.66-121.44,1.82-3.69,1.97-8.63,1.61-12.89-1.14-13.4-10.9-24.32-22.98-26.56-14.9-2.77-27.95,3.1-34.61,15.97-14.86,28.7-29.52,57.5-44.32,86.22-29.84,57.91-59.65,115.84-89.62,173.69-8.28,15.98-21.23,26.33-39.04,30.11-26.92,5.71-53.83,11.51-80.82,16.94-20.72,4.17-42.07,10.12-60.64-5.63-18.85-15.98-37.25-32.53-55.12-49.58-7.19-6.87-13.32-15.23-18.44-23.81-10.57-17.72-20.07-36.09-30.15-54.11-14.54-26-29.37-51.84-43.74-77.93-5.97-10.84-21.03-19.65-33.37-18.45-14.2,1.38-23.81,9.41-28.14,23.26-3.94,12.62,1.51,23,7.61,33.26,18,30.28,36.28,60.41,54,90.86,16.26,27.95,30.03,57.21,56.84,77.94,22.68,17.53,43.56,37.44,64.71,56.86,21.18,19.46,42.54,38.85,62.24,59.76,12.01,12.75,17.16,29.97,13.17,47.46-4.71,20.66-11.34,40.91-17.86,61.11-8.89,27.52-19.95,54.5-19.18,84.55Z"/>
  <path class="cls-1" d="M37.89,597.7c-10.49-16.38-20.55-32.09-31.21-48.73-18.15,11.68-36.15,23.07-53.95,34.76-17.51,11.5-34.81,23.32-52.22,35.01,13.89,22.15,27.8,43.31,40.58,65.14,6.36,10.86,12.65,22.48,15.41,34.57,5.05,22.11-12.94,55.88-32.73,67.21-14.87,8.51-30.02,14.28-47.14,8.32-21.28-7.42-37.72-31.74-27.73-60.41,7.65-21.97,19.09-41.26,42.12-50.8,3.24-1.34,6.01-3.82,8.87-5.69-21.03-32.85-42.12-65.1-62.45-97.81-11.74-18.89-9.04-29.62,7.59-41.83,19.89-14.61,41.86-26.4,62.81-39.58,14.35-9.03,29.2-17.45,42.59-27.75,21.43-16.48,37.8-8.34,50.02,10.11,22.76,34.36,45,69.07,67.4,103.67,7.68,11.86,16.24,23.32,22.5,35.9,7.18,14.44,7.17,30.66,1.72,45.46-9.44,25.66-26.77,44.69-54.76,49.88-26.93,4.99-52.56-13.77-52.52-46.87.03-23.76,16.39-53.67,43.17-65.21,2.97-1.28,5.72-3.06,9.92-5.34ZM-29.11,493.78c-36.61,23.57-71.77,46.2-107.21,69.02,7.44,10.93,13.56,19.92,20.09,29.52,35.24-23.3,69.77-46.13,105.53-69.77-6.17-9.64-12.15-18.99-18.41-28.76ZM-120.88,748.34c.05,14.07,10.88,21.28,22.48,14.58,14.19-8.2,22.36-20.89,24.5-37,1.42-10.66-7.95-19.66-17.19-17.45-15.9,3.8-29.86,22.47-29.8,39.87ZM15.61,668.67c.27,13.06,6.47,17.76,19.52,14.79,15.71-3.57,30.88-27.84,28.23-44.18-1.6-9.82-8.13-11.82-15.89-10.45-16.08,2.85-32.19,23.57-31.86,39.84Z"/>
  <path class="cls-1" d="M609.96,560.13c-25.86-38.5-51.17-75.99-76.24-113.63-6.28-9.44-11.97-19.29-17.61-29.13-5.92-10.31-1.69-20.91,9.52-23.82,54.96-14.28,114.62,4.05,148.3,51.99,2.33,3.32,5.52,6.05,7.85,9.38,6.34,9.07,4.44,18.28-4.71,24.14-8.76,5.61-16.14,3.21-22.22-6.64-22.23-36.02-54.35-53.63-99.23-52.16,5.56,9.21,10,17.17,15.02,24.74,17.47,26.34,34.98,52.66,52.77,78.78,13.24,19.44,27.54,38.17,40.26,57.94,12.49,19.41,1.46,59.91-19.66,76.79-13.15,10.51-26.93,18.58-44.8,17.82-25.18-1.07-43.18-25.29-40.78-50.49,3.14-33,22.43-54.93,51.53-65.7ZM636.02,612.38c.99-19.64-6.3-25.31-19.23-21.47-15.51,4.61-27.41,25.26-27.07,41.01.23,10.81,9.31,15.32,19.93,11.53,17.51-6.25,23.59-20.59,26.37-31.08Z"/>
  <path class="cls-1" d="M248.73,328.35c-51.73-1.46-93.01-42.12-91.64-93.68,1.42-53.16,43.75-95.1,100.89-92.18,51.82,2.65,89.3,43.43,87.77,96.25-1.47,50.69-44.43,91.34-97.02,89.6ZM313.67,234.68c2.35-30.18-25.95-59.36-57.72-60.68-36.46-1.51-65.6,20.83-67.16,59.2-1.42,34.89,19.41,60.67,58.49,64.34,35.39,3.32,68.11-27.68,66.39-62.87Z"/>
</svg>