<?xml version="1.0" encoding="UTF-8"?>
<svg id="Camada_1" data-name="Camada 1" xmlns="http://www.w3.org/2000/svg" viewBox="0 0 800 800">
  <g id="SVGRepo_iconCarrier" data-name="SVGRepo iconCarrier">
    <path d="M223.58,242.62c-10.66,5.7-15.91,16.05-17.03,27.75-.48,5.66-1.21,11.28-2.2,16.88-2.1,11.88-6.07,28.67-13.5,47.65-14.84,37.87-43.22,83.93-97.98,118.16C15.69,501.28-12.94,609.65-.7,706.67c12.49,99.05,69.06,201.72,180.97,239.02,11.15,3.72,23.44,1.07,32.07-6.92,10.55-9.77,11.09-22.72,8.41-35.79-1.97-9.59-6.14-33.62-6.14-62.31,0-9.29.43-18.81,1.42-28.36,17.2,39.43,40.52,68.18,63.82,88.74,34.67,30.59,67.43,41.71,77.18,44.58,7.4,2.18,15.27,2.32,22.51-.59,85.58-34.23,139.45-80.68,169.55-133.79,30.03-52.99,34.26-108.87,27.54-158.11-6.68-48.99-24.33-92.75-39.84-123.78-11.73-23.46-22.55-40.28-27.52-47.64-6.09-9.02-14.03-15.98-25.33-17.26-9-1.02-18.03,1.79-24.85,7.76l-50.4,44.11c4.33-69.95-20.28-128.73-50.82-173.02-22.18-32.16-47.49-56.86-67.09-73.47-9.85-8.34-18.38-14.75-24.56-19.14-3.1-2.2-5.61-3.89-7.41-5.08-10.68-7.04-23.49-9.28-35.23-3ZM150.65,858.98c-.29-5.85-.45-11.97-.45-18.31,0-33.91,4.73-76.7,23.45-116.48,6.27-13.32,14.11-26.31,23.87-38.5,8.21-10.26,21.83-14.51,34.42-10.72,12.59,3.78,21.61,14.84,22.8,27.93,7.29,80.14,39.5,124.95,67.73,149.86,14.43,12.73,28.34,20.71,38.42,25.44,38.91,4.75,115.71-69.67,132.16-98.69,21.3-37.59,25.12-78.33,19.76-117.65-6.26-45.92-25.08-88.42-40.05-115.99l-100.07,87.56c-11.44,10.01-28.33,10.66-40.5,1.56-12.17-9.11-16.32-25.48-9.95-39.29,42.39-91.84,18.13-164.29-17.4-215.81-14.11-20.45-29.98-37.48-44.18-50.67-2.58,9.05-5.81,18.86-9.85,29.18-5.74,14.64-13.14,30.35-22.67,46.35-21.33,35.81-53.32,73.04-101.15,102.93-46.77,29.23-74.5,106.04-63.8,190.95,8.07,64.01,37.15,123.92,87.44,160.36Z" style="fill: #010101; fill-rule: evenodd; stroke-width: 0px;"/>
  </g>
  <g id="SVGRepo_iconCarrier-2" data-name="SVGRepo iconCarrier">
    <path d="M479.42,436.87c1.8-1.19,4.32-2.89,7.41-5.08,6.18-4.39,14.72-10.8,24.56-19.14,19.6-16.61,44.91-41.31,67.09-73.47,30.54-44.29,55.15-103.06,50.82-173.02l50.4,44.11c6.82,5.97,15.84,8.79,24.85,7.76,11.3-1.29,19.24-8.25,25.33-17.26,4.97-7.36,15.79-24.17,27.52-47.64,15.51-31.03,33.16-74.79,39.84-123.78,6.72-49.25,2.49-105.12-27.54-158.11-30.1-53.11-83.97-99.56-169.55-133.79-7.25-2.9-15.11-2.77-22.51-.59-9.75,2.87-42.51,13.99-77.18,44.58-23.3,20.56-46.62,49.32-63.82,88.74-.99-9.55-1.42-19.08-1.42-28.36,0-28.7,4.17-52.72,6.14-62.31,2.68-13.07,2.14-26.02-8.41-35.79-8.62-7.99-20.92-10.64-32.07-6.92-111.92,37.3-168.48,139.97-180.97,239.02-12.23,97.02,16.39,205.39,93.57,253.63,54.76,34.23,83.14,80.29,97.98,118.16,7.44,18.98,11.41,35.77,13.5,47.65.99,5.6,1.71,11.22,2.2,16.88,1.12,11.7,6.37,22.04,17.03,27.75,11.75,6.28,24.55,4.03,35.23-3ZM283.81-16.12c-10.71,84.9,17.03,161.71,63.8,190.95,47.83,29.89,79.81,67.12,101.15,102.93,9.53,15.99,16.93,31.7,22.67,46.35,4.04,10.31,7.27,20.12,9.85,29.18,14.2-13.19,30.07-30.22,44.18-50.67,35.53-51.52,59.78-123.97,17.4-215.81-6.37-13.8-2.22-30.18,9.95-39.29,12.17-9.1,29.06-8.46,40.5,1.56l100.07,87.56c14.97-27.57,33.78-70.06,40.05-115.99,5.36-39.32,1.54-80.06-19.76-117.65-16.44-29.02-93.25-103.44-132.16-98.69-10.08,4.73-24,12.71-38.42,25.44-28.23,24.91-60.45,69.72-67.73,149.86-1.19,13.09-10.22,24.14-22.8,27.93-12.59,3.78-26.21-.46-34.42-10.72-9.76-12.2-17.6-25.18-23.87-38.5-18.72-39.78-23.45-82.57-23.45-116.48,0-6.33.16-12.46.45-18.31-50.29,36.44-79.37,96.35-87.44,160.36Z" style="fill: #010101; fill-rule: evenodd; stroke-width: 0px;"/>
  </g>
</svg>