<?xml version="1.0" encoding="UTF-8"?>
<svg id="Camada_1" data-name="Camada 1" xmlns="http://www.w3.org/2000/svg" viewBox="0 0 640 1000">
  <g id="SVGRepo_iconCarrier" data-name="SVGRepo iconCarrier">
    <path d="M154.2,412.43c-10.1,5.42-15.15,15.25-16.16,26.36-.46,5.42-1.19,10.75-2.11,16.07-2.02,11.3-5.79,27.28-12.86,45.28-14.14,36-41.05,79.72-93.13,112.32-73.38,45.83-100.57,148.87-88.9,241.08,11.85,94.14,65.67,191.76,172.02,227.21,10.56,3.49,22.32,1.01,30.49-6.61,10.01-9.28,10.56-21.58,7.99-33.98-1.84-9.09-5.88-31.96-5.88-59.24,0-8.82.37-17.91,1.38-27,16.35,37.47,38.48,64.84,60.71,84.31,32.97,29.11,64.1,39.68,73.38,42.34,7.07,2.11,14.51,2.2,21.4-.55,81.37-32.51,132.53-76.69,161.18-127.2,28.56-50.33,32.6-103.5,26.17-150.25-6.34-46.56-23.14-88.17-37.84-117.65-11.11-22.32-21.4-38.3-26.17-45.28-5.79-8.54-13.32-15.15-24.06-16.44-8.54-1.01-17.17,1.74-23.6,7.35l-47.94,41.88c4.13-66.49-19.29-122.33-48.31-164.49-21.12-30.58-45.19-54.09-63.74-69.8-9.37-7.9-17.45-14.05-23.33-18.18-2.94-2.11-5.33-3.67-7.07-4.87-10.29-6.52-22.5-8.63-33.61-2.66ZM84.86,998.29c-.28-5.6-.46-11.39-.46-17.45,0-32.24,4.5-72.92,22.32-110.76,5.97-12.67,13.41-24.98,22.68-36.64,7.81-9.74,20.76-13.78,32.7-10.19s20.57,14.14,21.67,26.54c6.89,76.14,37.56,118.75,64.38,142.45,13.68,12.12,26.91,19.65,36.55,24.15,37.01,4.5,110.03-66.22,125.64-93.77,20.2-35.73,23.88-74.48,18.83-111.86-5.97-43.62-23.88-84.03-38.11-110.21l-95.15,83.21c-10.84,9.55-26.91,10.1-38.48,1.47-11.57-8.63-15.52-24.25-9.46-37.38,40.32-87.34,17.27-156.13-16.53-205.17-13.41-19.47-28.47-35.63-41.97-48.12-2.48,8.63-5.51,17.91-9.37,27.74-5.42,13.96-12.49,28.84-21.58,44.08-20.3,34.07-50.7,69.43-96.16,97.81-44.45,27.83-70.81,100.84-60.61,181.48,7.62,61.07,35.27,118.02,83.12,152.64Z" style="fill: #010101; fill-rule: evenodd; stroke-width: 0px;"/>
  </g>
  <g id="SVGRepo_iconCarrier-2" data-name="SVGRepo iconCarrier">
    <path d="M401.54,588.73c1.74-1.19,4.13-2.76,7.07-4.87,5.88-4.13,13.96-10.29,23.33-18.18,18.55-15.7,42.61-39.22,63.74-69.8,29.02-42.15,52.44-97.99,48.31-164.49l47.94,41.88c6.43,5.6,15.06,8.36,23.6,7.35,10.75-1.29,18.28-7.9,24.06-16.44,4.78-6.98,15.06-22.96,26.17-45.28,14.69-29.48,31.5-71.08,37.84-117.65,6.43-46.75,2.39-99.92-26.17-150.25-28.65-50.51-79.81-94.69-161.18-127.2-6.89-2.76-14.33-2.66-21.4-.55-9.28,2.66-40.41,13.23-73.38,42.34-22.23,19.47-44.36,46.84-60.71,84.31-1.01-9.09-1.38-18.18-1.38-27,0-27.28,4.04-50.15,5.88-59.24,2.57-12.4,2.02-24.71-7.99-33.98-8.17-7.62-19.93-10.1-30.49-6.61C220.43-41.48,166.61,56.14,154.76,150.28c-11.66,92.21,15.52,195.25,88.9,241.08,52.07,32.6,78.98,76.32,93.13,112.32,7.07,18,10.84,33.98,12.86,45.28.92,5.33,1.65,10.65,2.11,16.07,1.01,11.11,6.06,20.94,16.16,26.36,11.11,5.97,23.33,3.86,33.61-2.66ZM215.47,158.18c-10.19,80.64,16.16,153.65,60.61,181.48,45.46,28.38,75.86,63.74,96.16,97.81,9.09,15.25,16.16,30.12,21.58,44.08,3.86,9.83,6.89,19.1,9.37,27.74,13.5-12.49,28.56-28.65,41.97-48.12,33.8-49.04,56.85-117.83,16.53-205.17-6.06-13.13-2.11-28.75,9.46-37.38,11.57-8.63,27.64-8.08,38.48,1.47l95.15,83.21c14.24-26.17,32.14-66.58,38.11-110.21,5.05-37.38,1.38-76.14-18.83-111.86-15.61-27.55-88.63-98.27-125.64-93.77-9.64,4.5-22.87,12.03-36.55,24.15-26.82,23.69-57.49,66.31-64.38,142.45-1.1,12.4-9.74,22.96-21.67,26.54s-24.89-.46-32.7-10.19c-9.28-11.66-16.72-23.97-22.68-36.64-17.82-37.84-22.32-78.52-22.32-110.76,0-6.06.18-11.85.46-17.45-47.85,34.62-75.49,91.57-83.12,152.64Z" style="fill: #010101; fill-rule: evenodd; stroke-width: 0px;"/>
  </g>
</svg>