<?xml version="1.0" encoding="UTF-8"?>
<svg id="Camada_1" data-name="Camada 1" xmlns="http://www.w3.org/2000/svg" viewBox="0 0 640 1000">
  <defs>
    <style>
      .cls-1 {
        fill: #010101;
        fill-rule: evenodd;
        stroke-width: 0px;
      }
    </style>
  </defs>
  <g id="SVGRepo_iconCarrier" data-name="SVGRepo iconCarrier">
    <path class="cls-1" d="M272.77,210.62c-75.51,7.61-104.68,15.91-124.74,43.04-6.07,8.2-9.31,21.03-9.46,38-.12,14.16,1.91,26.98,3.58,37.39l.77,5.16c1.5,9.99,4.02,23.86,9.79,33.88,2.59,4.55,4.88,6.34,6.12,7.16.74.45,3.18,1.77,9.55.81,4.72-.71,6.19-2.16,7.13-3.31,1.51-1.91,3.43-5.56,4.77-11.6,1.25-5.91,1.53-12.24,1.44-17.39-.03-2.46-.22-4.46-.31-5.79l-.2-1.32h0l-.02-.11c-2.9-20.1,11.02-38.8,31.11-41.81l407.97-61.12c-1-11.18-3.14-17.93-4.67-19.95-6.12-8.62-10.28-11.7-25.96-18.22-16.51-6.84-28.67-5.58-46.22.08-3.96,1.27-8.85,3.12-14.48,5.2-17.11,6.38-40.93,15.22-66.06,18.99-35.34,5.29-72.75.57-104.32-3.45l-2.29-.33c-32.63-4.31-59.52-7.8-83.51-5.33ZM625.74,307.45l-365.83,54.8,65.77,439.04c3.03,20.2,21.83,34.1,42.03,31.07l292.73-43.85c20.2-3.03,34.1-21.83,31.07-42.03l-10.97-73.21-49.33-329.28-5.48-36.55ZM197.39,444.56c-5.64,2.08-11.57,3.64-18.05,4.61-21.07,3.16-40.43-.23-56.99-9.64-16.07-9.15-26.69-22.37-33.81-34.66-13.36-23.25-17.29-49.48-18.77-59.36l-.07-.44-.58-3.84c-1.62-10.08-4.74-29.37-4.61-50.26.17-23.59,4.33-54.97,23.93-81.47,42.09-56.92,105.78-65.45,176.74-72.71,32.72-3.33,67.39,1.13,97.14,4.97l5.72.71c33.18,4.23,60.32,7.12,83.92,3.59,17.01-2.55,29.24-7.07,43.78-12.62,7.33-2.78,15.3-5.77,24.94-8.79,27.19-8.79,58.72-14.07,97.25,1.93,22.13,9.14,40.81,19.25,58.22,44.02,14.85,21.23,17.68,49.09,18.4,65.14.36,9.15.13,17.37-.11,23.25-.05,1.92-.24,3.63-.37,4.99l4.83,32.27,36.55-5.48c60.59-9.08,117.13,32.73,126.2,93.32l27.41,182.97c9.08,60.59-32.73,117.13-93.32,126.2l-36.55,5.48,5.48,36.55c9.08,60.59-32.73,117.13-93.32,126.2l-292.73,43.85c-60.59,9.08-117.13-32.73-126.2-93.32l-55.05-367.47ZM748.28,625.76l36.55-5.48c20.2-3.03,34.1-21.83,31.07-42.03l-27.41-182.97c-3.03-20.2-21.83-34.1-42.03-31.07l-36.55,5.48,38.36,256.07ZM537.9,470.2c3.03,20.2-10.88,39-31.07,42.03-20.2,3.03-39-10.88-42.03-31.07s10.88-39,31.07-42.03,39,10.88,42.03,31.07ZM373.26,494.87c30.29-4.54,51.2-32.81,46.66-63.1s-32.81-51.2-63.1-46.66c-30.29,4.54-51.2,32.81-46.66,63.1,4.54,30.29,32.81,51.2,63.1,46.66ZM444.59,596.4c3.03,20.2-10.88,39-31.07,42.03-20.2,3.03-39-10.88-42.03-31.07s10.88-39,31.07-42.03c20.2-3.03,39,10.88,42.03,31.07ZM570.79,689.72c20.2-3.03,34.1-21.83,31.07-42.03s-21.83-34.1-42.03-31.07-34.1,21.83-31.07,42.03c3.03,20.2,21.83,34.1,42.03,31.07Z"/>
  </g>
</svg>