<?xml version="1.0" encoding="UTF-8"?>
<svg id="Camada_1" data-name="Camada 1" xmlns="http://www.w3.org/2000/svg" viewBox="0 0 800 800">
  <g id="SVGRepo_iconCarrier" data-name="SVGRepo iconCarrier">
    <path d="M304.77,191.46c-78.55,12.27-108.59,22.5-128.08,52.06-5.87,8.91-8.55,22.54-7.72,40.21.69,14.83,3.52,28.15,5.82,38.94.39,1.84.77,3.61,1.11,5.3,2.13,10.4,5.52,24.68,12.13,34.87,2.98,4.59,5.42,6.41,6.84,7.12.84.42,3.42,1.62,10.03.26,4.9-1.01,6.34-2.67,7.23-3.85,1.53-2.04,3.29-5.96,4.31-12.4.99-6.27.94-12.9.52-18.32-.2-2.61-.48-4.7-.68-6.03-.1-.66-.18-1.12-.22-1.34v.04s0-.05,0-.05h0s-.02-.12-.02-.12c-4.17-20.89,9.32-41.24,30.21-45.53l423.2-86.9c-1.66-11.6-4.33-18.54-5.98-20.64-6.84-8.71-11.45-11.69-28.13-17.55-17.68-6.21-30.32-4.17-48.34,2.74-4.1,1.57-9.11,3.75-14.86,6.25-17.56,7.63-41.95,18.23-67.99,23.58-36.7,7.53-76.07,4.74-109.24,2.29l-2.45-.18c-34.45-2.55-62.82-4.65-87.7-.77ZM679.37,272.82l-379.57,77.94,93.52,455.48c4.3,20.96,24.79,34.47,45.75,30.16l303.65-62.35c20.96-4.3,34.47-24.79,30.16-45.75l-15.59-75.91-70.14-341.61-7.79-37.96ZM239.09,440.37c-5.75,2.46-11.95,4.41-18.59,5.78-21.86,4.49-42.33,2.09-60.2-6.82-17.29-8.62-29.2-21.85-37.28-34.3-15.25-23.51-20.84-50.8-22.93-60.99l-.1-.47c-.22-1.09-.51-2.41-.84-3.93-2.26-10.46-6.57-30.49-7.59-52.26-1.15-24.64,1.44-57.7,20.43-86.5,40.84-61.95,106.9-74.42,180.82-85.97,33.99-5.31,70.56-2.56,101.85-.21l5.97.45c34.92,2.58,63.52,4.1,87.94-.92,17.67-3.63,30.14-9.08,45.14-15.63,7.55-3.3,15.73-6.87,25.53-10.64,27.9-10.71,60.61-17.98,101.8-3.51,23.7,8.33,43.76,17.83,63.37,42.78,16.78,21.35,21.28,50.32,22.91,67.07.93,9.56,1.16,18.12,1.16,24.27,0,1.99-.02,3.75-.06,5.25l6.86,33.43,37.96-7.79c62.89-12.91,124.34,27.6,137.25,90.49l38.97,189.78c12.91,62.89-27.6,124.34-90.49,137.25l-37.96,7.79,7.79,37.96c12.91,62.89-27.6,124.34-90.49,137.25l-303.65,62.35c-62.89,12.91-124.34-27.6-137.25-90.49l-78.32-381.45ZM825.42,598.84l37.96-7.79c20.96-4.3,34.47-24.79,30.16-45.75l-38.97-189.78c-4.3-20.96-24.79-34.47-45.75-30.16l-37.96,7.79,54.55,265.7ZM596.67,448.02c4.3,20.96-9.2,41.45-30.16,45.75-20.96,4.3-41.45-9.2-45.75-30.16-4.3-20.96,9.2-41.45,30.16-45.75,20.96-4.3,41.45,9.2,45.75,30.16ZM425.87,483.1c31.44-6.46,51.7-37.18,45.24-68.63-6.46-31.44-37.18-51.7-68.63-45.24s-51.7,37.18-45.24,68.63c6.46,31.44,37.18,51.7,68.63,45.24ZM506.18,585.27c4.3,20.96-9.2,41.45-30.16,45.75s-41.45-9.2-45.75-30.16c-4.3-20.96,9.2-41.45,30.16-45.75,20.96-4.3,41.45,9.2,45.75,30.16ZM643.43,675.76c20.96-4.3,34.47-24.79,30.16-45.75s-24.79-34.47-45.75-30.16c-20.96,4.3-34.47,24.79-30.16,45.75,4.3,20.96,24.79,34.47,45.75,30.16Z" style="fill: #010101; fill-rule: evenodd; stroke-width: 0px;"/>
  </g>
</svg>